# Blender v2.93.5 OBJ File: 'fant_cube_rounder.blend'
# www.blender.org
mtllib fant_cube_rounder_3.mtl
o fant_cube_rounder_3_Cylinder.002
v -0.500000 0.000000 0.121262
v 0.500000 0.000000 0.121262
v -0.500000 0.207920 0.111048
v 0.500000 0.207920 0.111048
v -0.500000 0.413838 0.080502
v 0.500000 0.413838 0.080502
v -0.500000 0.615770 0.029921
v 0.500000 0.615770 0.029921
v -0.500000 0.811772 -0.040210
v 0.500000 0.811772 -0.040210
v -0.500000 0.999956 -0.129214
v 0.500000 0.999956 -0.129214
v -0.500000 1.178510 -0.236235
v 0.500000 1.178510 -0.236235
v -0.500000 1.345714 -0.360242
v 0.500000 1.345714 -0.360242
v -0.500000 -1.345714 -0.360242
v 0.500000 -1.345714 -0.360242
v -0.500000 -1.178510 -0.236235
v 0.500000 -1.178510 -0.236235
v -0.500000 -0.999956 -0.129214
v 0.500000 -0.999956 -0.129214
v -0.500000 -0.811772 -0.040209
v 0.500000 -0.811772 -0.040209
v -0.500000 -0.615770 0.029921
v 0.500000 -0.615770 0.029921
v -0.500000 -0.413837 0.080503
v 0.500000 -0.413837 0.080503
v -0.500000 -0.207920 0.111048
v 0.500000 -0.207920 0.111048
v 0.500000 1.499913 -0.500000
v -0.500000 1.499913 -0.500000
v 0.500000 -1.500000 -0.500087
v -0.500000 -1.500000 -0.500087
v -0.500000 0.000000 0.121262
v -0.500000 0.207920 0.111048
v -0.500000 0.413838 0.080502
v -0.500000 0.615770 0.029921
v -0.500000 0.811772 -0.040210
v -0.500000 0.999956 -0.129214
v -0.500000 1.178510 -0.236235
v -0.500000 1.345714 -0.360242
v 0.500000 1.499913 -0.500000
v 0.500000 1.499913 -0.500000
v -0.500000 1.499913 -0.500000
v -0.500000 1.499913 -0.500000
v -0.500000 -1.345714 -0.360242
v -0.500000 -1.178510 -0.236235
v -0.500000 -0.999956 -0.129214
v -0.500000 -0.811772 -0.040209
v -0.500000 -0.615770 0.029921
v -0.500000 -0.413837 0.080503
v -0.500000 -0.207920 0.111048
v 0.500000 -1.500000 -0.500087
v 0.500000 -1.500000 -0.500087
v -0.500000 -1.500000 -0.500087
v -0.500000 -1.500000 -0.500087
v 0.500000 -0.413837 0.080503
v 0.500000 -0.207920 0.111048
v 0.500000 0.000000 0.121262
v 0.500000 0.207920 0.111048
v 0.500000 0.413838 0.080502
v 0.500000 0.615770 0.029921
v 0.500000 0.811772 -0.040210
v 0.500000 0.999956 -0.129214
v 0.500000 1.178510 -0.236235
v 0.500000 1.345714 -0.360242
v 0.500000 -1.345714 -0.360242
v 0.500000 -1.178510 -0.236235
v 0.500000 -0.999956 -0.129214
v 0.500000 -0.811772 -0.040209
v 0.500000 -0.615770 0.029921
vt 0.240234 0.893449
vt 0.240234 0.893449
vt 0.240234 0.893449
vt 0.240234 0.893449
vt 0.240234 0.893449
vt 0.240234 0.893449
vt 0.240234 0.893449
vt 0.240234 0.893449
vt 0.240234 0.893449
vt 0.240234 0.893449
vt 0.240234 0.893449
vt 0.240234 0.893449
vt 0.240234 0.893449
vt 0.240234 0.893449
vt 0.240234 0.893449
vt 0.240234 0.893449
vt 0.240234 0.893449
vt 0.240234 0.893449
vt 0.240234 0.893449
vt 0.240234 0.893449
vt 0.240234 0.893449
vt 0.240234 0.893449
vt 0.240234 0.893449
vt 0.240234 0.893449
vt 0.240234 0.893449
vt 0.240234 0.893449
vt 0.240234 0.893449
vt 0.240234 0.893449
vt 0.240234 0.893449
vt 0.240234 0.893449
vt 0.240234 0.893449
vt 0.240234 0.893449
vt 0.240234 0.893449
vt 0.240234 0.893449
vt 0.240234 0.893449
vt 0.240234 0.893449
vt 0.240234 0.893449
vt 0.240234 0.893449
vt 0.240234 0.893449
vt 0.240234 0.893449
vt 0.240234 0.893449
vt 0.240234 0.893449
vt 0.240234 0.893449
vt 0.240234 0.893449
vt 0.240234 0.893449
vt 0.240234 0.893449
vt 0.240234 0.893449
vt 0.240234 0.893449
vt 0.240234 0.893449
vt 0.240234 0.893449
vt 0.240234 0.893449
vt 0.240234 0.893449
vt 0.240234 0.893449
vt 0.240234 0.893449
vt 0.240234 0.893449
vt 0.240234 0.893449
vt 0.240234 0.893449
vt 0.240234 0.893449
vt 0.240234 0.893449
vt 0.240234 0.893449
vt 0.240234 0.893449
vt 0.240234 0.893449
vt 0.240234 0.893449
vt 0.240234 0.893449
vt 0.240234 0.893449
vt 0.240234 0.893449
vt 0.240234 0.893449
vt 0.240234 0.893449
vt 0.240234 0.893449
vt 0.240234 0.893449
vt 0.240234 0.893449
vt 0.240234 0.893449
vn 0.0000 0.0000 1.0000
vn 0.0000 0.0980 0.9952
vn 0.0000 0.1951 0.9808
vn 0.0000 0.2903 0.9569
vn 0.0000 0.3827 0.9239
vn 0.0000 0.4714 0.8819
vn 0.0000 0.5556 0.8314
vn 0.0000 0.6344 0.7730
vn 0.0000 0.6715 0.7409
vn 0.0000 -0.6716 0.7409
vn 0.0000 -0.6344 0.7730
vn 0.0000 -0.5556 0.8314
vn 0.0000 -0.4714 0.8819
vn 0.0000 -0.3827 0.9239
vn 0.0000 -0.2903 0.9569
vn 0.0000 -0.1951 0.9808
vn 1.0000 0.0000 0.0000
vn 0.0000 -0.0980 0.9952
vn -1.0000 0.0000 0.0000
vn 0.0000 0.0000 -1.0000
usemtl fant_color_palette_dif
s 1
f 35/1/1 60/2/1 61/3/2 36/4/2
f 36/4/2 61/3/2 62/5/3 37/6/3
f 37/6/3 62/5/3 63/7/4 38/8/4
f 38/8/4 63/7/4 64/9/5 39/10/5
f 39/10/5 64/9/5 65/11/6 40/12/6
f 40/12/6 65/11/6 66/13/7 41/14/7
f 41/14/7 66/13/7 67/15/8 42/16/8
f 42/16/8 67/15/8 43/17/9 45/18/9
f 54/19/10 68/20/11 47/21/11 56/22/10
f 47/21/11 68/20/11 69/23/12 48/24/12
f 48/24/12 69/23/12 70/25/13 49/26/13
f 49/26/13 70/25/13 71/27/14 50/28/14
f 50/28/14 71/27/14 72/29/15 51/30/15
f 51/30/15 72/29/15 58/31/16 52/32/16
f 44/33/17 16/34/17 14/35/17 12/36/17 10/37/17 8/38/17 6/39/17 4/40/17 2/41/17 30/42/17 28/43/17 26/44/17 24/45/17 22/46/17 20/47/17 18/48/17 55/49/17
f 52/32/16 58/31/16 59/50/18 53/51/18
f 53/51/18 59/50/18 60/2/1 35/1/1
f 57/52/19 17/53/19 19/54/19 21/55/19 23/56/19 25/57/19 27/58/19 29/59/19 1/60/19 3/61/19 5/62/19 7/63/19 9/64/19 11/65/19 13/66/19 15/67/19 46/68/19
f 32/69/20 31/70/20 33/71/20 34/72/20
