# Blender v2.90.1 OBJ File: ''
# www.blender.org
mtllib long_wedge_left_a_1x2x1.mtl
o long_wedge_left_a_1x2x1_long_wedge_left_a_1x2x1_Cube.018
v -0.500000 -0.500000 -1.000000
v -0.500000 0.500000 -1.000000
v 0.500000 0.500000 -1.000000
v 0.500000 -0.500000 -1.000000
v 0.500000 0.500000 1.000000
v 0.500000 -0.500000 1.000000
v -0.500000 -0.500000 1.000000
vt 0.239567 0.872047
vt 0.239567 0.872047
vt 0.239567 0.872047
vt 0.239567 0.872047
vt 0.239567 0.872047
vt 0.239567 0.872047
vt 0.239567 0.872047
vn 0.0000 0.0000 -1.0000
vn 1.0000 -0.0000 0.0000
vn -1.0000 0.0000 0.0000
vn 0.0000 -1.0000 -0.0000
vn -0.6667 0.6667 0.3333
vn 0.0000 1.0000 0.0000
usemtl fant_color_palette_dif.001
s 1
f 1/1/1 2/2/1 3/3/1 4/4/1
f 4/4/2 3/3/2 5/5/2 6/6/2
f 2/2/3 1/1/3 7/7/3
f 6/6/1 7/7/1 5/5/1
f 4/4/4 6/6/4 7/7/4 1/1/4
f 7/7/5 5/5/5 2/2/5
f 3/3/6 2/2/6 5/5/6
