# Blender v2.90.1 OBJ File: 'basicshapes.blend'
# www.blender.org
mtllib long_wedge_left_1x2x1.mtl
o long_wedge_left_1x2x1_Cube.015
v -0.500000 -0.500000 1.000000
v -0.500000 -0.500000 -1.000000
v 0.500000 -0.500000 1.000000
v 0.500000 -0.500000 -1.000000
v 0.500000 0.500000 -1.000000
vt 0.236467 0.872047
vt 0.236467 0.872047
vt 0.236467 0.872047
vt 0.236467 0.872047
vt 0.236467 0.872047
vn 0.0000 0.8944 0.4472
vn 0.0000 0.0000 -1.0000
vn 1.0000 0.0000 0.0000
vn 0.0000 -1.0000 0.0000
vn -0.7071 0.7071 0.0000
usemtl fant_color_palette_dif
s off
f 3/1/1 5/2/1 1/3/1
f 2/4/2 5/2/2 4/5/2
f 4/5/3 5/2/3 3/1/3
f 2/4/4 4/5/4 3/1/4 1/3/4
f 5/2/5 2/4/5 1/3/5
