# Blender v2.90.1 OBJ File: 'basicshapes.blend'
# www.blender.org
mtllib square_wedge_tip_2x2x1.mtl
o square_wedge_tip_2x2x1_Cube.009
v -1.000000 -0.500000 1.000000
v -1.000000 -0.500000 -1.000000
v -1.000000 0.500000 -1.000000
v 1.000000 -0.500000 -1.000000
vt 0.236467 0.872047
vt 0.236467 0.872047
vt 0.236467 0.872047
vt 0.236467 0.872047
vn -1.0000 0.0000 0.0000
vn 0.0000 0.0000 -1.0000
vn 0.0000 -1.0000 0.0000
vn 0.4082 0.8165 0.4082
usemtl fant_color_palette_dif
s off
f 1/1/1 3/2/1 2/3/1
f 2/3/2 3/2/2 4/4/2
f 2/3/3 4/4/3 1/1/3
f 4/4/4 3/2/4 1/1/4
