# Blender v2.90.1 OBJ File: 'basicshapes.blend'
# www.blender.org
mtllib square_wedge_inner_2x2x1.mtl
o square_wedge_inner_2x2x1_Cube.012
v -1.000000 -0.500000 1.000000
v -1.000000 0.500000 1.000000
v -1.000000 -0.500000 -1.000000
v -1.000000 0.500000 -1.000000
v 1.000000 -0.500000 1.000000
v 1.000000 -0.500000 -1.000000
v 1.000000 0.500000 -1.000000
vt 0.239567 0.872047
vt 0.239567 0.872047
vt 0.239567 0.872047
vt 0.239567 0.872047
vt 0.239567 0.872047
vt 0.239567 0.872047
vt 0.239567 0.872047
vn -1.0000 0.0000 0.0000
vn 0.0000 0.0000 -1.0000
vn 0.0000 0.0000 1.0000
vn 1.0000 0.0000 0.0000
vn 0.0000 -1.0000 0.0000
vn 0.0000 1.0000 0.0000
vn 0.4082 0.8165 0.4082
usemtl fant_color_palette_dif
s off
f 1/1/1 2/2/1 4/3/1 3/4/1
f 3/4/2 4/3/2 7/5/2 6/6/2
f 2/2/3 1/1/3 5/7/3
f 6/6/4 7/5/4 5/7/4
f 3/4/5 6/6/5 5/7/5 1/1/5
f 4/3/6 2/2/6 7/5/6
f 2/2/7 5/7/7 7/5/7
