# Blender v2.90.1 OBJ File: 'basicshapes.blend'
# www.blender.org
mtllib wedge_outer_b_1x1x1.mtl
o wedge_outer_b_1x1x1_Cube.003
v -0.500000 -0.500000 0.500000
v -0.500000 -0.500000 -0.500000
v -0.500000 0.500000 -0.500000
v 0.500000 -0.500000 -0.500000
vt 0.236467 0.872047
vt 0.236467 0.872047
vt 0.236467 0.872047
vt 0.236467 0.872047
vn -1.0000 0.0000 0.0000
vn 0.0000 0.0000 -1.0000
vn 0.0000 -1.0000 0.0000
vn 0.5774 0.5774 0.5774
usemtl fant_color_palette_dif
s off
f 1/1/1 3/2/1 2/3/1
f 2/3/2 3/2/2 4/4/2
f 2/3/3 4/4/3 1/1/3
f 4/4/4 3/2/4 1/1/4
