# Blender v3.1.2 OBJ File: 'fant_propeller_remodel.blend'
# www.blender.org
mtllib fant_propeller_1.mtl
o fant_propeller_1_new_Cylinder.007
v -0.259808 -0.349531 -0.150000
v -0.000000 -0.349531 0.300000
v -0.000000 -0.349531 -0.300000
v -0.259808 -0.498204 -0.150000
v 0.259808 -0.349531 0.150000
v -0.000000 -0.498204 -0.300000
v 0.259808 -0.349531 -0.150000
v 0.176029 0.499335 -0.101630
v 0.176029 0.499335 0.101630
v -0.176029 0.499335 -0.101630
v -0.000000 -0.433294 -0.300000
v 0.259808 -0.433294 0.150000
v -0.000000 -0.349531 -0.259021
v -0.224319 -0.349531 0.129511
v 0.224319 -0.349531 0.129511
v -0.000000 -0.433294 0.259021
v 0.161372 -0.498204 0.093168
v -0.000000 -0.498204 0.186336
v -0.161372 -0.498204 -0.093168
v -0.000000 -0.498204 -0.186336
v -0.000000 -0.460826 -0.117729
v 0.092563 0.499335 -0.053441
v 0.092563 0.499335 0.053442
v -0.000000 0.499335 0.106883
v -0.092563 0.499335 0.053441
v -0.092563 0.499335 -0.053442
v -0.000000 0.499335 -0.106883
v 0.047667 0.484234 -0.027521
v 0.047667 0.484234 0.027521
v -0.000000 0.484234 0.055041
v -0.047667 0.484234 0.027521
v -0.047667 0.484234 -0.027521
v -0.000000 0.484234 -0.055041
v 0.564750 0.242419 1.373239
v 0.628708 0.169875 1.339981
v 0.055598 0.125574 0.258848
v 0.688442 0.089120 1.283102
v 0.738484 0.008011 1.208733
v 0.772522 -0.071457 1.109900
v 0.788791 -0.142581 0.996860
v 0.790855 -0.199287 0.887843
v 0.216893 -0.062031 0.165724
v 0.591081 0.126742 1.361704
v 0.527123 0.199286 1.394963
v 0.650816 0.045987 1.304826
v 0.700858 -0.035122 1.230456
v 0.734895 -0.114590 1.131623
v 0.751164 -0.185714 1.018584
v 0.753228 -0.242420 0.909566
v 0.179267 -0.105164 0.187447
v 0.017971 0.082441 0.280572
v 0.106244 -0.002082 0.350047
v 0.153267 -0.017539 0.400580
v 0.179939 0.083014 0.307499
v 0.226962 0.067557 0.358032
v 0.196584 -0.067557 0.375571
v 0.270279 0.017539 0.333023
v 0.176332 -0.083014 0.309581
v 0.250028 0.002083 0.267033
v 0.120499 -0.042548 0.293807
v 0.194195 0.042548 0.251259
v 0.906885 0.242419 -1.175707
v 0.846103 0.169875 -1.214468
v 0.196370 0.125574 -0.177573
v 0.766978 0.089120 -1.237760
v 0.677551 0.008011 -1.243912
v 0.574940 -0.071457 -1.223973
v 0.468911 -0.142581 -1.181543
v 0.373467 -0.199287 -1.128822
v 0.035074 -0.062031 -0.270697
v 0.883730 0.126742 -1.192744
v 0.944512 0.199286 -1.153983
v 0.804604 0.045987 -1.216036
v 0.715177 -0.035122 -1.222189
v 0.612567 -0.114590 -1.202250
v 0.506537 -0.185714 -1.159819
v 0.411093 -0.242420 -1.107098
v 0.072701 -0.105164 -0.248973
v 0.233996 0.082441 -0.155849
v 0.250028 -0.002082 -0.267033
v 0.270279 -0.017539 -0.333023
v 0.176332 0.083014 -0.309581
v 0.196584 0.067557 -0.375571
v 0.226962 -0.067557 -0.358032
v 0.153267 0.017539 -0.400580
v 0.179939 -0.083014 -0.307499
v 0.106244 0.002083 -0.350047
v 0.194195 -0.042548 -0.251258
v 0.120499 0.042548 -0.293807
v -1.471635 0.242419 -0.197532
v -1.474811 0.169875 -0.125513
v -0.251968 0.125574 -0.081275
v -1.455420 0.089120 -0.045342
v -1.416035 0.008011 0.035180
v -1.347462 -0.071457 0.114074
v -1.257702 -0.142581 0.184683
v -1.164322 -0.199287 0.240979
v -0.251968 -0.062031 0.104973
v -1.474811 0.126742 -0.168961
v -1.471635 0.199286 -0.240979
v -1.455420 0.045987 -0.088790
v -1.416035 -0.035122 -0.008267
v -1.347462 -0.114590 0.070627
v -1.257702 -0.185714 0.141236
v -1.164322 -0.242420 0.197532
v -0.251968 -0.105164 0.061526
v -0.251968 0.082441 -0.124722
v -0.356272 -0.002082 -0.083014
v -0.423546 -0.017539 -0.067557
v -0.356272 0.083014 0.002082
v -0.423546 0.067557 0.017539
v -0.423546 -0.067557 -0.017539
v -0.423546 0.017539 0.067557
v -0.356271 -0.083014 -0.002082
v -0.356272 0.002083 0.083014
v -0.314694 -0.042548 -0.042548
v -0.314694 0.042548 0.042548
v 0.259808 -0.498204 -0.150000
v 0.259808 -0.498204 0.150000
v -0.259808 -0.349531 0.150000
v -0.000000 -0.498204 0.300000
v -0.259808 -0.498204 0.150000
v -0.259808 0.415556 -0.150000
v -0.259808 0.415556 0.150000
v -0.000000 0.415556 0.300000
v 0.259808 0.415556 0.150000
v 0.259808 0.415556 -0.150000
v -0.000000 0.499335 0.203261
v -0.176029 0.499335 0.101630
v -0.000000 0.499335 -0.203261
v -0.000000 0.415556 -0.300000
v -0.000000 -0.433294 0.300000
v -0.259808 -0.433294 0.150000
v -0.259808 -0.433294 -0.150000
v 0.259808 -0.433294 -0.150000
v 0.224319 -0.349531 -0.129511
v -0.000000 -0.349531 0.259021
v -0.224319 -0.349531 -0.129511
v -0.000000 -0.433294 -0.259021
v 0.224319 -0.433294 -0.129511
v 0.224319 -0.433294 0.129511
v -0.224319 -0.433294 0.129511
v -0.224319 -0.433294 -0.129511
v 0.161372 -0.498204 -0.093168
v -0.161372 -0.498204 0.093168
v 0.101956 -0.460826 -0.058865
v 0.101956 -0.460826 0.058865
v -0.000000 -0.460826 0.117729
v -0.101956 -0.460826 0.058865
v -0.101956 -0.460826 -0.058865
v 0.564750 0.242419 1.373239
v 0.564750 0.242419 1.373239
v 0.628708 0.169875 1.339981
v 0.055598 0.125574 0.258848
v 0.055598 0.125574 0.258848
v 0.688442 0.089120 1.283102
v 0.738484 0.008011 1.208733
v 0.772522 -0.071457 1.109900
v 0.788791 -0.142581 0.996860
v 0.790855 -0.199287 0.887843
v 0.790855 -0.199287 0.887843
v 0.216893 -0.062031 0.165724
v 0.216893 -0.062031 0.165724
v 0.527123 0.199286 1.394963
v 0.527123 0.199286 1.394963
v 0.591081 0.126742 1.361704
v 0.650816 0.045987 1.304826
v 0.700858 -0.035122 1.230456
v 0.734895 -0.114590 1.131623
v 0.751164 -0.185714 1.018584
v 0.753228 -0.242420 0.909566
v 0.753228 -0.242420 0.909566
v 0.179267 -0.105164 0.187447
v 0.179267 -0.105164 0.187447
v 0.017971 0.082441 0.280572
v 0.017971 0.082441 0.280572
v 0.106244 -0.002082 0.350047
v 0.106244 -0.002082 0.350047
v 0.153267 -0.017539 0.400580
v 0.153267 -0.017539 0.400580
v 0.179939 0.083014 0.307499
v 0.179939 0.083014 0.307499
v 0.226962 0.067557 0.358032
v 0.226962 0.067557 0.358032
v 0.196584 -0.067557 0.375571
v 0.196584 -0.067557 0.375571
v 0.270279 0.017539 0.333023
v 0.270279 0.017539 0.333023
v 0.176332 -0.083014 0.309581
v 0.176332 -0.083014 0.309581
v 0.250028 0.002083 0.267033
v 0.250028 0.002083 0.267033
v 0.120499 -0.042548 0.293807
v 0.120499 -0.042548 0.293807
v 0.194195 0.042548 0.251259
v 0.194195 0.042548 0.251259
v 0.906885 0.242419 -1.175707
v 0.906885 0.242419 -1.175707
v 0.846103 0.169875 -1.214468
v 0.196370 0.125574 -0.177573
v 0.196370 0.125574 -0.177573
v 0.766978 0.089120 -1.237760
v 0.677551 0.008011 -1.243912
v 0.574940 -0.071457 -1.223973
v 0.468911 -0.142581 -1.181543
v 0.373467 -0.199287 -1.128822
v 0.373467 -0.199287 -1.128822
v 0.035074 -0.062031 -0.270697
v 0.035074 -0.062031 -0.270697
v 0.944512 0.199286 -1.153983
v 0.944512 0.199286 -1.153983
v 0.883730 0.126742 -1.192744
v 0.804604 0.045987 -1.216036
v 0.715177 -0.035122 -1.222189
v 0.612567 -0.114590 -1.202250
v 0.506537 -0.185714 -1.159819
v 0.411093 -0.242420 -1.107098
v 0.411093 -0.242420 -1.107098
v 0.072701 -0.105164 -0.248973
v 0.072701 -0.105164 -0.248973
v 0.233996 0.082441 -0.155849
v 0.233996 0.082441 -0.155849
v 0.250028 -0.002082 -0.267033
v 0.250028 -0.002082 -0.267033
v 0.270279 -0.017539 -0.333023
v 0.270279 -0.017539 -0.333023
v 0.176332 0.083014 -0.309581
v 0.176332 0.083014 -0.309581
v 0.196584 0.067557 -0.375571
v 0.196584 0.067557 -0.375571
v 0.226962 -0.067557 -0.358032
v 0.226962 -0.067557 -0.358032
v 0.153267 0.017539 -0.400580
v 0.153267 0.017539 -0.400580
v 0.179939 -0.083014 -0.307499
v 0.179939 -0.083014 -0.307499
v 0.106244 0.002083 -0.350047
v 0.106244 0.002083 -0.350047
v 0.194195 -0.042548 -0.251258
v 0.194195 -0.042548 -0.251258
v 0.120499 0.042548 -0.293807
v 0.120499 0.042548 -0.293807
v -1.471635 0.242419 -0.197532
v -1.471635 0.242419 -0.197532
v -1.474811 0.169875 -0.125513
v -0.251968 0.125574 -0.081275
v -0.251968 0.125574 -0.081275
v -1.455420 0.089120 -0.045342
v -1.416035 0.008011 0.035180
v -1.347462 -0.071457 0.114074
v -1.257702 -0.142581 0.184683
v -1.164322 -0.199287 0.240979
v -1.164322 -0.199287 0.240979
v -0.251968 -0.062031 0.104973
v -0.251968 -0.062031 0.104973
v -1.471635 0.199286 -0.240979
v -1.471635 0.199286 -0.240979
v -1.474811 0.126742 -0.168961
v -1.455420 0.045987 -0.088790
v -1.416035 -0.035122 -0.008267
v -1.347462 -0.114590 0.070627
v -1.257702 -0.185714 0.141236
v -1.164322 -0.242420 0.197532
v -1.164322 -0.242420 0.197532
v -0.251968 -0.105164 0.061526
v -0.251968 -0.105164 0.061526
v -0.251968 0.082441 -0.124722
v -0.251968 0.082441 -0.124722
v -0.356272 -0.002082 -0.083014
v -0.356272 -0.002082 -0.083014
v -0.423546 -0.017539 -0.067557
v -0.423546 -0.017539 -0.067557
v -0.356272 0.083014 0.002082
v -0.356272 0.083014 0.002082
v -0.423546 0.067557 0.017539
v -0.423546 0.067557 0.017539
v -0.423546 -0.067557 -0.017539
v -0.423546 -0.067557 -0.017539
v -0.423546 0.017539 0.067557
v -0.423546 0.017539 0.067557
v -0.356271 -0.083014 -0.002082
v -0.356271 -0.083014 -0.002082
v -0.356272 0.002083 0.083014
v -0.356272 0.002083 0.083014
v -0.314694 -0.042548 -0.042548
v -0.314694 -0.042548 -0.042548
v -0.314694 0.042548 0.042548
v -0.314694 0.042548 0.042548
vt 0.239567 0.892549
vt 0.239567 0.892549
vt 0.239567 0.892549
vt 0.239567 0.892549
vt 0.239567 0.892549
vt 0.239567 0.892549
vt 0.239567 0.892549
vt 0.239567 0.892549
vt 0.239567 0.892549
vt 0.239567 0.892549
vt 0.239567 0.892549
vt 0.239567 0.892549
vt 0.239567 0.892549
vt 0.239567 0.892549
vt 0.239567 0.892549
vt 0.239567 0.892549
vt 0.239567 0.892549
vt 0.239567 0.892549
vt 0.239567 0.892549
vt 0.239567 0.892549
vt 0.239567 0.892549
vt 0.239567 0.892549
vt 0.239567 0.892549
vt 0.239567 0.892549
vt 0.239567 0.892549
vt 0.239567 0.892549
vt 0.239567 0.892549
vt 0.239567 0.892549
vt 0.239567 0.892549
vt 0.239567 0.892549
vt 0.239567 0.892549
vt 0.239567 0.892549
vt 0.239567 0.892549
vt 0.239567 0.892549
vt 0.239567 0.892549
vt 0.239567 0.892549
vt 0.239567 0.892549
vt 0.239567 0.892549
vt 0.239567 0.892549
vt 0.239567 0.892549
vt 0.239567 0.892549
vt 0.239567 0.892549
vt 0.239567 0.892549
vt 0.239567 0.892549
vt 0.057652 0.905712
vt 0.057652 0.905712
vt 0.057652 0.905712
vt 0.057652 0.905712
vt 0.057652 0.905712
vt 0.057652 0.905712
vt 0.057652 0.905712
vt 0.057652 0.905712
vt 0.057652 0.905712
vt 0.057652 0.905712
vt 0.057652 0.905712
vt 0.057652 0.905712
vt 0.239567 0.892549
vt 0.239567 0.892549
vt 0.239567 0.892549
vt 0.239567 0.892549
vt 0.239567 0.892549
vt 0.239567 0.892549
vt 0.239567 0.892549
vt 0.239567 0.892549
vt 0.057652 0.905712
vt 0.057652 0.905712
vt 0.057652 0.905712
vt 0.057652 0.905712
vt 0.057652 0.905712
vt 0.057652 0.905712
vt 0.239567 0.892549
vt 0.239567 0.892549
vt 0.239567 0.892549
vt 0.239567 0.892549
vt 0.239567 0.892549
vt 0.239567 0.892549
vt 0.239567 0.892549
vt 0.239567 0.892549
vt 0.239567 0.892549
vt 0.239567 0.892549
vt 0.057652 0.905712
vt 0.057652 0.905712
vt 0.057652 0.905712
vt 0.057652 0.905712
vt 0.057652 0.905712
vt 0.057652 0.905712
vt 0.239567 0.892549
vt 0.239567 0.892549
vt 0.239567 0.892549
vt 0.239567 0.892549
vt 0.128711 0.784330
vt 0.101579 0.745478
vt 0.560119 0.411362
vt 0.080271 0.696419
vt 0.066592 0.642101
vt 0.064824 0.581284
vt 0.074253 0.519661
vt 0.090235 0.465002
vt 0.493140 0.308805
vt 0.794711 0.519687
vt 0.823149 0.520270
vt 0.793659 0.570962
vt 0.795894 0.462054
vt 0.822096 0.571546
vt 0.824331 0.462638
vt 0.797124 0.402108
vt 0.825562 0.402691
vt 0.826866 0.339134
vt 0.798429 0.338551
vt 0.799727 0.275303
vt 0.828164 0.275887
vt 0.800853 0.220425
vt 0.829290 0.221009
vt 0.386075 0.336958
vt 0.183913 0.411073
vt 0.368910 0.290139
vt 0.166748 0.364255
vt 0.014425 0.193915
vt 0.014425 0.126902
vt 0.757071 0.193915
vt 0.757071 0.126902
vt 0.014431 0.192914
vt 0.014431 0.126902
vt 0.819784 0.192914
vt 0.819784 0.126902
vt 0.128711 0.784330
vt 0.560119 0.411362
vt 0.101579 0.745478
vt 0.080271 0.696419
vt 0.066592 0.642101
vt 0.064824 0.581284
vt 0.074253 0.519661
vt 0.090235 0.465003
vt 0.493140 0.308805
vt 0.604465 0.178520
vt 0.604465 0.191742
vt 0.505492 0.178520
vt 0.505492 0.191742
vt 0.604465 0.125631
vt 0.604465 0.138443
vt 0.505492 0.125631
vt 0.505492 0.138443
vt 0.604465 0.138443
vt 0.604465 0.151666
vt 0.505492 0.138443
vt 0.505492 0.151666
vt 0.604465 0.151666
vt 0.604465 0.165301
vt 0.505492 0.151666
vt 0.505492 0.165301
vt 0.604465 0.165301
vt 0.604465 0.178520
vt 0.505492 0.165301
vt 0.505492 0.178520
vt 0.040507 0.931433
vt 0.069746 0.960651
vt 0.010164 0.991037
vt 0.003683 0.950213
vt 0.050993 0.997489
vt 0.010164 0.991037
vt 0.040507 0.931433
vt 0.050993 0.997488
vt 0.003683 0.950213
vt 0.069746 0.960652
vt 0.128711 0.784330
vt 0.101579 0.745478
vt 0.560119 0.411362
vt 0.080271 0.696419
vt 0.066592 0.642101
vt 0.064824 0.581284
vt 0.074253 0.519661
vt 0.090235 0.465002
vt 0.493140 0.308805
vt 0.794711 0.519687
vt 0.823149 0.520270
vt 0.793659 0.570962
vt 0.795894 0.462054
vt 0.822096 0.571546
vt 0.824331 0.462638
vt 0.797124 0.402108
vt 0.825562 0.402691
vt 0.826866 0.339134
vt 0.798429 0.338551
vt 0.799727 0.275303
vt 0.828164 0.275887
vt 0.800853 0.220425
vt 0.829290 0.221009
vt 0.386075 0.336958
vt 0.183913 0.411073
vt 0.368910 0.290139
vt 0.166748 0.364255
vt 0.014425 0.193915
vt 0.014425 0.126902
vt 0.757071 0.193915
vt 0.757071 0.126902
vt 0.014431 0.192914
vt 0.014431 0.126902
vt 0.819784 0.192914
vt 0.819784 0.126902
vt 0.128711 0.784330
vt 0.560119 0.411362
vt 0.101579 0.745478
vt 0.080271 0.696419
vt 0.066592 0.642101
vt 0.064824 0.581284
vt 0.074253 0.519661
vt 0.090235 0.465003
vt 0.493140 0.308805
vt 0.604465 0.178520
vt 0.604465 0.191742
vt 0.505492 0.178520
vt 0.505492 0.191742
vt 0.604465 0.125631
vt 0.604465 0.138443
vt 0.505492 0.125631
vt 0.505492 0.138443
vt 0.604465 0.138443
vt 0.604465 0.151666
vt 0.505492 0.138443
vt 0.505492 0.151666
vt 0.604465 0.151666
vt 0.604465 0.165301
vt 0.505492 0.151666
vt 0.505492 0.165301
vt 0.604465 0.165301
vt 0.604465 0.178520
vt 0.505492 0.165301
vt 0.505492 0.178520
vt 0.040507 0.931433
vt 0.069746 0.960651
vt 0.010164 0.991037
vt 0.003683 0.950213
vt 0.050993 0.997489
vt 0.010164 0.991037
vt 0.040507 0.931433
vt 0.050993 0.997488
vt 0.003683 0.950213
vt 0.069746 0.960652
vt 0.128711 0.784330
vt 0.101579 0.745478
vt 0.560119 0.411362
vt 0.080271 0.696419
vt 0.066592 0.642101
vt 0.064824 0.581284
vt 0.074253 0.519661
vt 0.090235 0.465002
vt 0.493140 0.308805
vt 0.794711 0.519687
vt 0.823149 0.520270
vt 0.793659 0.570962
vt 0.795894 0.462054
vt 0.822096 0.571546
vt 0.824331 0.462638
vt 0.797124 0.402108
vt 0.825562 0.402691
vt 0.826866 0.339134
vt 0.798429 0.338551
vt 0.799727 0.275303
vt 0.828164 0.275887
vt 0.800853 0.220425
vt 0.829290 0.221009
vt 0.386075 0.336958
vt 0.183913 0.411073
vt 0.368910 0.290139
vt 0.166748 0.364255
vt 0.014425 0.193915
vt 0.014425 0.126902
vt 0.757071 0.193915
vt 0.757071 0.126902
vt 0.014431 0.192914
vt 0.014431 0.126902
vt 0.819784 0.192914
vt 0.819784 0.126902
vt 0.128711 0.784330
vt 0.560119 0.411362
vt 0.101579 0.745478
vt 0.080271 0.696419
vt 0.066592 0.642101
vt 0.064824 0.581284
vt 0.074253 0.519661
vt 0.090235 0.465003
vt 0.493140 0.308805
vt 0.604465 0.178520
vt 0.604465 0.191742
vt 0.505492 0.178520
vt 0.505492 0.191742
vt 0.604465 0.125631
vt 0.604465 0.138443
vt 0.505492 0.125631
vt 0.505492 0.138443
vt 0.604465 0.138443
vt 0.604465 0.151666
vt 0.505492 0.138443
vt 0.505492 0.151666
vt 0.604465 0.151666
vt 0.604465 0.165301
vt 0.505492 0.151666
vt 0.505492 0.165301
vt 0.604465 0.165301
vt 0.604465 0.178520
vt 0.505492 0.165301
vt 0.505492 0.178520
vt 0.040507 0.931433
vt 0.069746 0.960651
vt 0.010164 0.991037
vt 0.003683 0.950213
vt 0.050993 0.997489
vt 0.010164 0.991037
vt 0.040507 0.931433
vt 0.050993 0.997488
vt 0.003683 0.950213
vt 0.069746 0.960652
vn 0.5000 0.0000 -0.8660
vn -0.5000 0.0000 0.8660
vn -1.0000 0.0000 -0.0000
vn -0.5000 0.0000 -0.8660
vn 1.0000 0.0000 0.0000
vn 0.0000 -1.0000 0.0000
vn 0.5000 0.0000 0.8660
vn 0.7071 0.7071 0.0000
vn 0.3536 0.7071 0.6124
vn -0.3536 0.7071 0.6124
vn -0.7071 0.7071 -0.0000
vn -0.3536 0.7071 -0.6124
vn 0.3536 0.7071 -0.6124
vn 0.0000 1.0000 -0.0000
vn 0.2662 -0.8464 -0.4611
vn -0.5325 -0.8464 -0.0000
vn -0.2662 -0.8464 0.4611
vn 0.5325 -0.8464 0.0000
vn -0.2662 -0.8464 -0.4611
vn 0.2662 -0.8464 0.4611
vn -0.3188 0.9478 -0.0000
vn -0.1594 0.9478 0.2761
vn 0.3188 0.9478 0.0000
vn -0.1594 0.9478 -0.2761
vn 0.1594 0.9478 0.2761
vn 0.1594 0.9478 -0.2761
vn 0.6147 0.7045 -0.3547
vn 0.6147 0.7044 -0.3548
vn 0.5408 -0.0488 0.8397
vn 0.4808 0.0220 0.8766
vn 0.6356 -0.1758 0.7518
vn 0.7125 -0.3027 0.6330
vn 0.7654 -0.4238 0.4843
vn 0.7858 -0.5075 0.3535
vn 0.7887 -0.5392 0.2954
vn -0.6716 0.7033 0.2331
vn 0.4933 -0.6943 -0.5241
vn -0.6147 -0.7045 0.3547
vn -0.6147 -0.7044 0.3548
vn -0.4279 0.6725 0.6039
vn 0.7369 -0.6725 -0.0686
vn -0.0446 -0.4156 -0.9084
vn -0.7645 0.4156 -0.4928
vn -0.6124 -0.7071 0.3536
vn 0.6124 0.7071 -0.3536
vn -0.6145 0.7045 -0.3550
vn -0.6146 0.7045 -0.3550
vn -0.6146 0.7044 -0.3550
vn 0.4568 -0.0488 -0.8882
vn 0.5187 0.0220 -0.8547
vn 0.3333 -0.1758 -0.9263
vn 0.1920 -0.3027 -0.9335
vn 0.0367 -0.4238 -0.9050
vn -0.0867 -0.5075 -0.8573
vn -0.1385 -0.5392 -0.8307
vn 0.5377 0.7033 0.4651
vn -0.7005 -0.6943 -0.1652
vn 0.6145 -0.7045 0.3550
vn 0.6146 -0.7045 0.3550
vn 0.6146 -0.7044 0.3550
vn 0.7369 0.6725 0.0686
vn -0.4279 -0.6725 -0.6039
vn -0.7645 -0.4156 0.4928
vn -0.0446 0.4156 0.9084
vn 0.6124 -0.7071 0.3536
vn -0.6124 0.7071 -0.3536
vn -0.0001 0.7045 0.7097
vn -0.0002 0.7045 0.7097
vn -0.0001 0.7044 0.7098
vn -0.9976 -0.0488 0.0485
vn -0.9995 0.0220 -0.0219
vn -0.9688 -0.1758 0.1745
vn -0.9045 -0.3027 0.3005
vn -0.8021 -0.4238 0.4207
vn -0.6991 -0.5075 0.5038
vn -0.6502 -0.5392 0.5353
vn 0.1339 0.7033 -0.6982
vn 0.2072 -0.6943 0.6892
vn 0.0001 -0.7045 -0.7097
vn 0.0002 -0.7045 -0.7097
vn 0.0001 -0.7044 -0.7098
vn -0.3090 0.6725 -0.6725
vn -0.3090 -0.6725 0.6725
vn 0.8090 -0.4156 0.4156
vn 0.8090 0.4156 -0.4156
vn 0.0000 -0.7071 -0.7071
vn -0.0000 0.7071 0.7071
usemtl fant_color_palette_dif
s off
f 3/1/1 131/2/1 127/3/1 7/4/1
f 2/5/2 125/6/2 124/7/2 120/8/2
f 120/8/3 124/7/3 123/9/3 1/10/3
f 1/10/4 123/9/4 131/2/4 3/1/4
f 7/4/5 127/3/5 126/11/5 5/12/5
f 1/10/6 3/1/6 13/13/6 138/14/6
f 5/12/7 126/11/7 125/6/7 2/5/7
f 122/15/6 4/16/6 19/17/6 145/18/6
f 126/11/8 127/3/8 8/19/8 9/20/8
f 125/6/9 126/11/9 9/20/9 128/21/9
f 124/7/10 125/6/10 128/21/10 129/22/10
f 123/9/11 124/7/11 129/22/11 10/23/11
f 131/2/12 123/9/12 10/23/12 130/24/12
f 127/3/13 131/2/13 130/24/13 8/19/13
f 9/20/14 8/19/14 22/25/14 23/26/14
f 5/12/6 2/5/6 137/27/6 15/28/6
f 134/29/14 133/30/14 142/31/14 143/32/14
f 2/5/6 120/8/6 14/33/6 137/27/6
f 132/34/14 12/35/14 141/36/14 16/37/14
f 7/4/6 5/12/6 15/28/6 136/38/6
f 6/39/1 11/40/1 135/41/1 118/42/1
f 121/43/2 132/34/2 133/30/2 122/15/2
f 122/15/3 133/30/3 134/29/3 4/16/3
f 4/16/4 134/29/4 11/40/4 6/39/4
f 118/42/5 135/41/5 12/35/5 119/44/5
f 119/44/7 12/35/7 132/34/7 121/43/7
f 141/45/7 15/46/7 137/47/7 16/48/7
f 140/49/5 136/50/5 15/46/5 141/45/5
f 143/51/4 138/52/4 13/53/4 139/54/4
f 142/55/3 14/56/3 138/52/3 143/51/3
f 16/48/2 137/47/2 14/56/2 142/55/2
f 139/54/1 13/53/1 136/50/1 140/49/1
f 11/40/14 134/29/14 143/32/14 139/57/14
f 120/8/6 1/10/6 138/14/6 14/33/6
f 135/41/14 11/40/14 139/57/14 140/58/14
f 12/35/14 135/41/14 140/58/14 141/36/14
f 3/1/6 7/4/6 136/38/6 13/13/6
f 133/30/14 132/34/14 16/37/14 142/31/14
f 18/59/15 145/18/15 149/60/15 148/61/15
f 119/44/6 121/43/6 18/59/6 17/62/6
f 4/16/6 6/39/6 20/63/6 19/17/6
f 118/42/6 119/44/6 17/62/6 144/64/6
f 121/43/6 122/15/6 145/18/6 18/59/6
f 6/39/6 118/42/6 144/64/6 20/63/6
f 146/65/6 147/66/6 148/67/6 149/68/6 150/69/6 21/70/6
f 144/64/16 17/62/16 147/71/16 146/72/16
f 20/63/17 144/64/17 146/72/17 21/73/17
f 145/18/18 19/17/18 150/74/18 149/60/18
f 17/62/19 18/59/19 148/61/19 147/71/19
f 19/17/20 20/63/20 21/73/20 150/74/20
f 23/26/21 22/25/21 28/75/21 29/76/21
f 10/23/14 129/22/14 25/77/14 26/78/14
f 8/19/14 130/24/14 27/79/14 22/25/14
f 128/21/14 9/20/14 23/26/14 24/80/14
f 130/24/14 10/23/14 26/78/14 27/79/14
f 129/22/14 128/21/14 24/80/14 25/77/14
f 29/81/14 28/82/14 33/83/14 32/84/14 31/85/14 30/86/14
f 22/25/22 27/79/22 33/87/22 28/75/22
f 26/78/23 25/77/23 31/88/23 32/89/23
f 24/80/24 23/26/24 29/76/24 30/90/24
f 27/79/25 26/78/25 32/89/25 33/87/25
f 25/77/26 24/80/26 30/90/26 31/88/26
usemtl obj_warehouse_fan_dif
s 1
f 151/91/27 153/92/27 154/93/27
f 153/92/27 156/94/27 154/93/27
f 156/94/27 157/95/27 154/93/27
f 157/95/27 158/96/27 154/93/27
f 158/96/27 159/97/28 154/93/27
f 159/97/28 160/98/28 154/93/27
f 162/99/27 154/93/27 160/98/28
f 166/100/29 35/101/29 164/102/30
f 167/103/31 35/101/29 166/100/29
f 164/102/30 35/101/29 152/104/30
f 37/105/31 35/101/29 167/103/31
f 168/106/32 38/107/32 167/103/31
f 167/103/31 38/107/32 37/105/31
f 39/108/33 38/107/32 169/109/33
f 169/109/33 38/107/32 168/106/32
f 170/110/34 39/108/33 169/109/33
f 40/111/34 39/108/33 170/110/34
f 171/112/35 40/111/34 170/110/34
f 161/113/35 40/111/34 171/112/35
f 173/114/4 175/115/4 163/116/4
f 163/116/4 175/115/4 155/117/4
f 36/118/36 176/119/36 34/120/36
f 34/120/36 176/119/36 165/121/36
f 174/122/37 42/123/37 172/124/37
f 172/124/37 42/123/37 41/125/37
f 44/126/38 51/127/38 43/128/38
f 43/128/38 51/127/38 45/129/38
f 45/129/38 51/127/38 46/130/38
f 46/130/38 51/127/38 47/131/38
f 47/131/38 51/127/38 48/132/39
f 48/132/39 51/127/38 49/133/39
f 49/133/39 51/127/38 50/134/38
f 177/135/40 179/136/40 181/137/40
f 181/137/40 179/136/40 183/138/40
f 180/139/7 185/140/7 184/141/7
f 184/141/7 185/140/7 187/142/7
f 186/143/41 189/144/41 188/145/41
f 188/145/41 189/144/41 191/146/41
f 190/147/42 193/148/42 192/149/42
f 192/149/42 193/148/42 195/150/42
f 194/151/43 178/152/43 196/153/43
f 196/153/43 178/152/43 182/154/43
f 58/155/44 56/156/44 52/157/44
f 58/155/44 52/157/44 60/158/44
f 52/157/44 56/156/44 53/159/44
f 59/160/45 54/161/45 57/162/45
f 61/163/45 54/161/45 59/160/45
f 57/162/45 54/161/45 55/164/45
f 197/165/46 199/166/46 200/167/46
f 199/166/46 202/168/46 200/167/46
f 202/168/46 203/169/47 200/167/46
f 203/169/47 204/170/47 200/167/46
f 204/170/47 205/171/48 200/167/46
f 205/171/48 206/172/48 200/167/46
f 208/173/46 200/167/46 206/172/48
f 212/174/49 63/175/49 210/176/50
f 213/177/51 63/175/49 212/174/49
f 210/176/50 63/175/49 198/178/50
f 65/179/51 63/175/49 213/177/51
f 214/180/52 66/181/52 213/177/51
f 213/177/51 66/181/52 65/179/51
f 67/182/53 66/181/52 215/183/53
f 215/183/53 66/181/52 214/180/52
f 216/184/54 67/182/53 215/183/53
f 68/185/54 67/182/53 216/184/54
f 217/186/55 68/185/54 216/184/54
f 207/187/55 68/185/54 217/186/55
f 219/188/2 221/189/2 209/190/2
f 209/190/2 221/189/2 201/191/2
f 64/192/56 222/193/56 62/194/56
f 62/194/56 222/193/56 211/195/56
f 220/196/57 70/197/57 218/198/57
f 218/198/57 70/197/57 69/199/57
f 72/200/58 79/201/58 71/202/58
f 71/202/58 79/201/58 73/203/58
f 73/203/58 79/201/58 74/204/59
f 74/204/59 79/201/58 75/205/59
f 75/205/59 79/201/58 76/206/60
f 76/206/60 79/201/58 77/207/60
f 77/207/60 79/201/58 78/208/58
f 223/209/61 225/210/61 227/211/61
f 227/211/61 225/210/61 229/212/61
f 226/213/1 231/214/1 230/215/1
f 230/215/1 231/214/1 233/216/1
f 232/217/62 235/218/62 234/219/62
f 234/219/62 235/218/62 237/220/62
f 236/221/63 239/222/63 238/223/63
f 238/223/63 239/222/63 241/224/63
f 240/225/64 224/226/64 242/227/64
f 242/227/64 224/226/64 228/228/64
f 86/229/65 84/230/65 80/231/65
f 86/229/65 80/231/65 88/232/65
f 80/231/65 84/230/65 81/233/65
f 87/234/66 82/235/66 85/236/66
f 89/237/66 82/235/66 87/234/66
f 85/236/66 82/235/66 83/238/66
f 243/239/67 245/240/68 246/241/68
f 245/240/68 248/242/68 246/241/68
f 248/242/68 249/243/67 246/241/68
f 249/243/67 250/244/67 246/241/68
f 250/244/67 251/245/69 246/241/68
f 251/245/69 252/246/69 246/241/68
f 254/247/68 246/241/68 252/246/69
f 258/248/70 91/249/70 256/250/71
f 259/251/72 91/249/70 258/248/70
f 256/250/71 91/249/70 244/252/71
f 93/253/72 91/249/70 259/251/72
f 260/254/73 94/255/73 259/251/72
f 259/251/72 94/255/73 93/253/72
f 95/256/74 94/255/73 261/257/74
f 261/257/74 94/255/73 260/254/73
f 262/258/75 95/256/74 261/257/74
f 96/259/75 95/256/74 262/258/75
f 263/260/76 96/259/75 262/258/75
f 253/261/76 96/259/75 263/260/76
f 265/262/5 267/263/5 255/264/5
f 255/264/5 267/263/5 247/265/5
f 92/266/77 268/267/77 90/268/77
f 90/268/77 268/267/77 257/269/77
f 266/270/78 98/271/78 264/272/78
f 264/272/78 98/271/78 97/273/78
f 100/274/79 107/275/80 99/276/80
f 99/276/80 107/275/80 101/277/80
f 101/277/80 107/275/80 102/278/79
f 102/278/79 107/275/80 103/279/79
f 103/279/79 107/275/80 104/280/81
f 104/280/81 107/275/80 105/281/81
f 105/281/81 107/275/80 106/282/80
f 269/283/82 271/284/82 273/285/82
f 273/285/82 271/284/82 275/286/82
f 272/287/3 277/288/3 276/289/3
f 276/289/3 277/288/3 279/290/3
f 278/291/83 281/292/83 280/293/83
f 280/293/83 281/292/83 283/294/83
f 282/295/84 285/296/84 284/297/84
f 284/297/84 285/296/84 287/298/84
f 286/299/85 270/300/85 288/301/85
f 288/301/85 270/300/85 274/302/85
f 114/303/86 112/304/86 108/305/86
f 114/303/86 108/305/86 116/306/86
f 108/305/86 112/304/86 109/307/86
f 115/308/87 110/309/87 113/310/87
f 117/311/87 110/309/87 115/308/87
f 113/310/87 110/309/87 111/312/87
