# Blender v2.93.5 OBJ File: 'fant_wing_remake.blend'
# www.blender.org
mtllib fant_wing_2-3.mtl
o fant_wing_2-3_Cube.008
v 0.500000 0.250000 1.000000
v -0.500000 0.039247 1.490026
v 0.500000 0.069496 2.462776
v 0.500000 0.083419 2.425553
v 0.500000 0.039247 2.490026
v -0.500000 0.069496 1.462776
v -0.500000 0.083419 1.425553
v 0.500000 0.250000 -1.000000
v -0.500000 0.250000 0.000000
v -0.500000 0.039247 -1.490026
v 0.500000 0.250000 0.000000
v 0.500000 0.069496 -2.462776
v 0.500000 0.083419 -2.425553
v 0.500000 0.039247 -2.490026
v -0.500000 0.069496 -1.462776
v -0.500000 0.083419 -1.425553
v 0.500000 -0.250000 1.000000
v 0.500000 0.000000 1.000000
v 0.500000 0.000000 2.425553
v -0.500000 0.000000 1.500000
v -0.500000 -0.039247 1.490026
v -0.500000 0.000000 1.425553
v 0.500000 -0.069496 2.462776
v 0.500000 -0.083419 2.425553
v 0.500000 -0.039247 2.490026
v 0.500000 0.000000 2.500000
v -0.500000 -0.069496 1.462776
v -0.500000 -0.083419 1.425553
v 0.500000 -0.250000 -1.000000
v 0.500000 0.000000 -1.000000
v 0.500000 0.000000 0.000000
v 0.500000 0.000000 -2.425553
v -0.500000 -0.250000 0.000000
v -0.500000 0.000000 -1.500000
v -0.500000 -0.039247 -1.490026
v -0.500000 0.000000 0.000000
v -0.500000 0.000000 -1.425553
v 0.500000 -0.250000 0.000000
v 0.500000 -0.069496 -2.462776
v 0.500000 -0.083419 -2.425553
v 0.500000 -0.039247 -2.490026
v 0.500000 0.000000 -2.500000
v -0.500000 -0.069496 -1.462776
v -0.500000 -0.083419 -1.425553
v 0.500000 0.069496 2.462776
v 0.500000 0.083419 2.425553
v 0.500000 0.000000 2.500000
v 0.500000 0.039247 2.490026
v -0.500000 0.069496 1.462776
v -0.500000 0.083419 1.425553
v 0.500000 0.250000 0.000000
v 0.500000 0.250000 1.000000
v -0.500000 0.039247 1.490026
v -0.500000 0.000000 1.500000
v -0.500000 0.250000 0.000000
v 0.500000 0.069496 -2.462776
v 0.500000 0.083419 -2.425553
v 0.500000 0.000000 -2.500000
v 0.500000 0.039247 -2.490026
v -0.500000 0.069496 -1.462776
v -0.500000 0.083419 -1.425553
v 0.500000 0.250000 -1.000000
v -0.500000 0.039247 -1.490026
v -0.500000 0.000000 -1.500000
v 0.500000 -0.069496 2.462776
v 0.500000 -0.083419 2.425553
v 0.500000 -0.039247 2.490026
v -0.500000 -0.069496 1.462776
v -0.500000 -0.083419 1.425553
v 0.500000 -0.250000 0.000000
v 0.500000 -0.250000 1.000000
v -0.500000 -0.039247 1.490026
v -0.500000 -0.250000 0.000000
v 0.500000 -0.069496 -2.462776
v 0.500000 -0.083419 -2.425553
v 0.500000 -0.039247 -2.490026
v -0.500000 -0.069496 -1.462776
v -0.500000 -0.083419 -1.425553
v 0.500000 -0.250000 -1.000000
v -0.500000 -0.039247 -1.490026
vt 0.240887 0.933348
vt 0.240887 0.933348
vt 0.240887 0.933348
vt 0.240887 0.933348
vt 0.240887 0.933348
vt 0.240887 0.933348
vt 0.240887 0.933348
vt 0.240887 0.933348
vt 0.240887 0.933348
vt 0.240887 0.933348
vt 0.240887 0.933348
vt 0.240887 0.933348
vt 0.240887 0.933348
vt 0.240887 0.933348
vt 0.240887 0.933348
vt 0.240887 0.933348
vt 0.240887 0.933348
vt 0.240887 0.933348
vt 0.240887 0.933348
vt 0.240887 0.933348
vt 0.240887 0.933348
vt 0.240887 0.933348
vt 0.240887 0.933348
vt 0.240887 0.933348
vt 0.240887 0.933348
vt 0.240887 0.933348
vt 0.240887 0.933348
vt 0.240887 0.933348
vt 0.240887 0.933348
vt 0.240887 0.933348
vt 0.240887 0.933348
vt 0.240887 0.933348
vt 0.240887 0.933348
vt 0.240887 0.933348
vt 0.240887 0.933348
vt 0.240887 0.933348
vt 0.240887 0.933348
vt 0.240887 0.933348
vt 0.240887 0.933348
vt 0.240887 0.933348
vt 0.240887 0.933348
vt 0.240887 0.933348
vt 0.240887 0.933348
vt 0.240887 0.933348
vt 0.240887 0.933348
vt 0.240887 0.933348
vt 0.240887 0.933348
vt 0.240887 0.933348
vt 0.240887 0.933348
vt 0.240887 0.933348
vt 0.240887 0.933348
vt 0.240887 0.933348
vt 0.240887 0.933348
vt 0.240887 0.933348
vt 0.240887 0.933348
vt 0.240887 0.933348
vt 0.240887 0.933348
vt 0.240887 0.933348
vt 0.240887 0.933348
vt 0.240887 0.933348
vt 0.240887 0.933348
vt 0.240887 0.933348
vt 0.240887 0.933348
vt 0.240887 0.933348
vt 0.240887 0.933348
vt 0.240887 0.933348
vt 0.240887 0.933348
vt 0.240887 0.933348
vt 0.240887 0.933348
vt 0.240887 0.933348
vt 0.240887 0.933348
vt 0.240887 0.933348
vt 0.240887 0.933348
vt 0.240887 0.933348
vt 0.240887 0.933348
vt 0.240887 0.933348
vt 0.240887 0.933348
vt 0.240887 0.933348
vt 0.240887 0.933348
vt 0.240887 0.933348
vn -0.1741 0.9692 0.1741
vn -0.4279 0.7961 0.4279
vn -0.5336 0.6561 0.5336
vn -0.2781 0.9194 0.2781
vn 1.0000 0.0000 0.0000
vn -0.6483 0.3991 0.6483
vn -0.6699 0.3201 0.6699
vn -0.0582 0.9983 0.0000
vn -0.0866 0.9925 0.0866
vn 0.0000 1.0000 0.0000
vn -1.0000 0.0000 0.0000
vn -0.7071 0.0000 0.7071
vn -0.1741 0.9692 -0.1741
vn -0.2781 0.9194 -0.2781
vn -0.5336 0.6561 -0.5336
vn -0.4279 0.7961 -0.4279
vn -0.6699 0.3201 -0.6699
vn -0.6483 0.3991 -0.6483
vn -0.0866 0.9925 -0.0866
vn -0.7071 0.0000 -0.7071
vn -0.1741 -0.9692 0.1741
vn -0.2781 -0.9194 0.2781
vn -0.5336 -0.6561 0.5336
vn -0.4279 -0.7961 0.4279
vn -0.6699 -0.3201 0.6699
vn -0.6483 -0.3991 0.6483
vn -0.0582 -0.9983 0.0000
vn 0.0000 -1.0000 0.0000
vn -0.0866 -0.9925 0.0866
vn -0.1741 -0.9692 -0.1741
vn -0.4279 -0.7961 -0.4279
vn -0.5336 -0.6561 -0.5336
vn -0.2781 -0.9194 -0.2781
vn -0.6483 -0.3991 -0.6483
vn -0.6699 -0.3201 -0.6699
vn -0.0866 -0.9925 -0.0866
usemtl fant_wing
s 1
f 50/1/1 49/2/2 45/3/3 46/4/4
f 31/5/5 51/6/5 52/7/5 18/8/5
f 48/9/5 47/10/5 19/11/5
f 3/12/5 48/9/5 19/11/5
f 4/13/5 3/12/5 19/11/5
f 49/2/2 2/14/6 5/15/7 45/3/3
f 9/16/8 1/17/9 11/18/10
f 9/16/8 50/1/1 46/4/4 1/17/9
f 53/19/11 22/20/11 54/21/11
f 6/22/11 22/20/11 53/19/11
f 7/23/11 22/20/11 6/22/11
f 2/14/6 20/24/12 26/25/12 5/15/7
f 7/23/11 55/26/11 36/27/11 22/20/11
f 4/13/5 19/11/5 18/8/5 52/7/5
f 61/28/13 57/29/14 56/30/15 60/31/16
f 31/5/5 30/32/5 62/33/5 51/6/5
f 59/34/5 32/35/5 58/36/5
f 12/37/5 32/35/5 59/34/5
f 13/38/5 32/35/5 12/37/5
f 60/31/16 56/30/15 14/39/17 10/40/18
f 9/16/8 11/18/10 8/41/19
f 9/16/8 8/41/19 57/29/14 61/28/13
f 63/42/11 64/43/11 37/44/11
f 15/45/11 63/42/11 37/44/11
f 16/46/11 15/45/11 37/44/11
f 10/40/18 14/39/17 42/47/20 34/48/20
f 16/46/11 37/44/11 36/27/11 55/26/11
f 13/38/5 62/33/5 30/32/5 32/35/5
f 69/49/21 66/50/22 65/51/23 68/52/24
f 31/5/5 18/8/5 71/53/5 70/54/5
f 67/55/5 19/11/5 47/10/5
f 23/56/5 19/11/5 67/55/5
f 24/57/5 19/11/5 23/56/5
f 68/52/24 65/51/23 25/58/25 21/59/26
f 33/60/27 38/61/28 17/62/29
f 33/60/27 17/62/29 66/50/22 69/49/21
f 72/63/11 54/21/11 22/20/11
f 27/64/11 72/63/11 22/20/11
f 28/65/11 27/64/11 22/20/11
f 21/59/26 25/58/25 26/25/12 20/24/12
f 28/65/11 22/20/11 36/27/11 73/66/11
f 24/57/5 71/53/5 18/8/5 19/11/5
f 78/67/30 77/68/31 74/69/32 75/70/33
f 31/5/5 70/54/5 79/71/5 30/32/5
f 76/72/5 58/36/5 32/35/5
f 39/73/5 76/72/5 32/35/5
f 40/74/5 39/73/5 32/35/5
f 77/68/31 35/75/34 41/76/35 74/69/32
f 33/60/27 29/77/36 38/61/28
f 33/60/27 78/67/30 75/70/33 29/77/36
f 80/78/11 37/44/11 64/43/11
f 43/79/11 37/44/11 80/78/11
f 44/80/11 37/44/11 43/79/11
f 35/75/34 34/48/20 42/47/20 41/76/35
f 44/80/11 73/66/11 36/27/11 37/44/11
f 40/74/5 32/35/5 30/32/5 79/71/5
