# Blender v2.93.5 OBJ File: 'fant_wing_remake.blend'
# www.blender.org
mtllib fant_wing_3.mtl
o fant_wing_3_Cube
v 0.500000 0.250000 1.000000
v 0.500000 0.083419 2.425553
v 0.500000 0.069496 2.462776
v 0.500000 0.039247 2.490026
v -0.500000 0.250000 1.000000
v -0.500000 0.083419 2.425553
v -0.500000 0.069496 2.462776
v -0.500000 0.039247 2.490026
v -0.500000 0.250000 1.000000
v -0.500000 0.083419 2.425553
v -0.500000 0.069496 2.462776
v -0.500000 0.039247 2.490026
v 0.500000 0.250000 1.000000
v 0.500000 0.083419 2.425553
v 0.500000 0.069496 2.462776
v 0.500000 0.039247 2.490026
v 0.500000 0.250000 -1.000000
v 0.500000 0.083419 -2.425553
v 0.500000 0.069496 -2.462776
v 0.500000 0.039247 -2.490026
v -0.500000 0.250000 -1.000000
v -0.500000 0.083419 -2.425553
v -0.500000 0.069496 -2.462776
v -0.500000 0.039247 -2.490026
v 0.500000 0.250000 0.000000
v -0.500000 0.250000 0.000000
v -0.500000 0.250000 -1.000000
v -0.500000 0.083419 -2.425553
v -0.500000 0.069496 -2.462776
v -0.500000 0.039247 -2.490026
v 0.500000 0.250000 -1.000000
v 0.500000 0.083419 -2.425553
v 0.500000 0.069496 -2.462776
v 0.500000 0.039247 -2.490026
v -0.500000 0.250000 0.000000
v 0.500000 0.250000 0.000000
v 0.500000 -0.250000 1.000000
v 0.500000 -0.083419 2.425553
v 0.500000 -0.069496 2.462776
v 0.500000 -0.039247 2.490026
v -0.500000 -0.250000 1.000000
v -0.500000 -0.083419 2.425553
v -0.500000 -0.069496 2.462776
v -0.500000 -0.039247 2.490026
v 0.500000 0.000000 2.500000
v 0.500000 0.000000 1.000000
v 0.500000 0.000000 2.425553
v -0.500000 0.000000 2.500000
v -0.500000 0.000000 1.000000
v -0.500000 0.000000 2.425553
v -0.500000 -0.250000 1.000000
v -0.500000 -0.083419 2.425553
v -0.500000 -0.069496 2.462776
v -0.500000 -0.039247 2.490026
v 0.500000 -0.250000 1.000000
v 0.500000 -0.083419 2.425553
v 0.500000 -0.069496 2.462776
v 0.500000 -0.039247 2.490026
v -0.500000 0.000000 2.500000
v -0.500000 0.000000 1.000000
v -0.500000 0.000000 2.425553
v 0.500000 0.000000 2.500000
v 0.500000 0.000000 1.000000
v 0.500000 0.000000 2.425553
v 0.500000 -0.250000 -1.000000
v 0.500000 -0.083419 -2.425553
v 0.500000 -0.069496 -2.462776
v 0.500000 -0.039247 -2.490026
v -0.500000 -0.250000 -1.000000
v -0.500000 -0.083419 -2.425553
v -0.500000 -0.069496 -2.462776
v -0.500000 -0.039247 -2.490026
v 0.500000 -0.250000 0.000000
v -0.500000 -0.250000 0.000000
v 0.500000 0.000000 -2.500000
v 0.500000 0.000000 -1.000000
v 0.500000 0.000000 -2.425553
v -0.500000 0.000000 -2.500000
v -0.500000 0.000000 -1.000000
v -0.500000 0.000000 -2.425553
v 0.500000 0.000000 0.000000
v -0.500000 0.000000 0.000000
v -0.500000 -0.250000 -1.000000
v -0.500000 -0.083419 -2.425553
v -0.500000 -0.069496 -2.462776
v -0.500000 -0.039247 -2.490026
v 0.500000 -0.250000 -1.000000
v 0.500000 -0.083419 -2.425553
v 0.500000 -0.069496 -2.462776
v 0.500000 -0.039247 -2.490026
v -0.500000 -0.250000 0.000000
v 0.500000 -0.250000 0.000000
v -0.500000 0.000000 -2.500000
v -0.500000 0.000000 -1.000000
v -0.500000 0.000000 -2.425553
v 0.500000 0.000000 -2.500000
v 0.500000 0.000000 -1.000000
v 0.500000 0.000000 -2.425553
v -0.500000 0.000000 0.000000
v 0.500000 0.000000 0.000000
v 0.500000 0.250000 0.000000
v 0.500000 0.250000 1.000000
v 0.500000 0.069496 2.462776
v 0.500000 0.083419 2.425553
v 0.500000 0.039247 2.490026
v 0.500000 0.000000 2.500000
v -0.500000 0.250000 0.000000
v -0.500000 0.250000 1.000000
v -0.500000 0.069496 2.462776
v -0.500000 0.083419 2.425553
v -0.500000 0.039247 2.490026
v -0.500000 0.000000 2.500000
v -0.500000 0.250000 0.000000
v -0.500000 0.250000 1.000000
v -0.500000 0.069496 2.462776
v -0.500000 0.083419 2.425553
v -0.500000 0.039247 2.490026
v -0.500000 0.000000 2.500000
v 0.500000 0.250000 0.000000
v 0.500000 0.250000 1.000000
v 0.500000 0.069496 2.462776
v 0.500000 0.083419 2.425553
v 0.500000 0.039247 2.490026
v 0.500000 0.000000 2.500000
v 0.500000 0.250000 -1.000000
v 0.500000 0.069496 -2.462776
v 0.500000 0.083419 -2.425553
v 0.500000 0.039247 -2.490026
v 0.500000 0.000000 -2.500000
v -0.500000 0.250000 -1.000000
v -0.500000 0.069496 -2.462776
v -0.500000 0.083419 -2.425553
v -0.500000 0.039247 -2.490026
v -0.500000 0.000000 -2.500000
v -0.500000 0.250000 -1.000000
v -0.500000 0.069496 -2.462776
v -0.500000 0.083419 -2.425553
v -0.500000 0.039247 -2.490026
v -0.500000 0.000000 -2.500000
v 0.500000 0.250000 -1.000000
v 0.500000 0.069496 -2.462776
v 0.500000 0.083419 -2.425553
v 0.500000 0.039247 -2.490026
v 0.500000 0.000000 -2.500000
v 0.500000 -0.250000 0.000000
v 0.500000 -0.250000 1.000000
v 0.500000 -0.069496 2.462776
v 0.500000 -0.083419 2.425553
v 0.500000 -0.039247 2.490026
v -0.500000 -0.250000 0.000000
v -0.500000 -0.250000 1.000000
v -0.500000 -0.069496 2.462776
v -0.500000 -0.083419 2.425553
v -0.500000 -0.039247 2.490026
v -0.500000 -0.250000 0.000000
v -0.500000 -0.250000 1.000000
v -0.500000 -0.069496 2.462776
v -0.500000 -0.083419 2.425553
v -0.500000 -0.039247 2.490026
v 0.500000 -0.250000 0.000000
v 0.500000 -0.250000 1.000000
v 0.500000 -0.069496 2.462776
v 0.500000 -0.083419 2.425553
v 0.500000 -0.039247 2.490026
v 0.500000 -0.250000 -1.000000
v 0.500000 -0.069496 -2.462776
v 0.500000 -0.083419 -2.425553
v 0.500000 -0.039247 -2.490026
v -0.500000 -0.250000 -1.000000
v -0.500000 -0.069496 -2.462776
v -0.500000 -0.083419 -2.425553
v -0.500000 -0.039247 -2.490026
v -0.500000 -0.250000 -1.000000
v -0.500000 -0.069496 -2.462776
v -0.500000 -0.083419 -2.425553
v -0.500000 -0.039247 -2.490026
v 0.500000 -0.250000 -1.000000
v 0.500000 -0.069496 -2.462776
v 0.500000 -0.083419 -2.425553
v 0.500000 -0.039247 -2.490026
vt 0.240887 0.933348
vt 0.240887 0.933348
vt 0.240887 0.933348
vt 0.240887 0.933348
vt 0.240887 0.933348
vt 0.240887 0.933348
vt 0.240887 0.933348
vt 0.240887 0.933348
vt 0.240887 0.933348
vt 0.240887 0.933348
vt 0.240887 0.933348
vt 0.240887 0.933348
vt 0.240887 0.933348
vt 0.240887 0.933348
vt 0.240887 0.933348
vt 0.240887 0.933348
vt 0.240887 0.933348
vt 0.240887 0.933348
vt 0.240887 0.933348
vt 0.240887 0.933348
vt 0.240887 0.933348
vt 0.240887 0.933348
vt 0.240887 0.933348
vt 0.240887 0.933348
vt 0.240887 0.933348
vt 0.240887 0.933348
vt 0.240887 0.933348
vt 0.240887 0.933348
vt 0.240887 0.933348
vt 0.240887 0.933348
vt 0.240887 0.933348
vt 0.240887 0.933348
vt 0.240887 0.933348
vt 0.240887 0.933348
vt 0.240887 0.933348
vt 0.240887 0.933348
vt 0.240887 0.933348
vt 0.240887 0.933348
vt 0.240887 0.933348
vt 0.240887 0.933348
vt 0.240887 0.933348
vt 0.240887 0.933348
vt 0.240887 0.933348
vt 0.240887 0.933348
vt 0.240887 0.933348
vt 0.240887 0.933348
vt 0.240887 0.933348
vt 0.240887 0.933348
vt 0.240887 0.933348
vt 0.240887 0.933348
vt 0.240887 0.933348
vt 0.240887 0.933348
vt 0.240887 0.933348
vt 0.240887 0.933348
vt 0.240887 0.933348
vt 0.240887 0.933348
vt 0.240887 0.933348
vt 0.240887 0.933348
vt 0.240887 0.933348
vt 0.240887 0.933348
vt 0.240887 0.933348
vt 0.240887 0.933348
vt 0.240887 0.933348
vt 0.240887 0.933348
vt 0.240887 0.933348
vt 0.240887 0.933348
vt 0.240887 0.933348
vt 0.240887 0.933348
vt 0.240887 0.933348
vt 0.240887 0.933348
vt 0.240887 0.933348
vt 0.240887 0.933348
vt 0.240887 0.933348
vt 0.240887 0.933348
vt 0.240887 0.933348
vt 0.240887 0.933348
vt 0.240887 0.933348
vt 0.240887 0.933348
vt 0.240887 0.933348
vt 0.240887 0.933348
vt 0.240887 0.933348
vt 0.240887 0.933348
vt 0.240887 0.933348
vt 0.240887 0.933348
vt 0.240887 0.933348
vt 0.240887 0.933348
vt 0.240887 0.933348
vt 0.240887 0.933348
vt 0.240887 0.933348
vt 0.240887 0.933348
vt 0.240887 0.933348
vt 0.240887 0.933348
vt 0.240887 0.933348
vt 0.240887 0.933348
vt 0.240887 0.933348
vt 0.240887 0.933348
vt 0.240887 0.933348
vt 0.240887 0.933348
vt 0.240887 0.933348
vt 0.240887 0.933348
vt 0.240887 0.933348
vt 0.240887 0.933348
vt 0.240887 0.933348
vt 0.240887 0.933348
vt 0.240887 0.933348
vt 0.240887 0.933348
vt 0.240887 0.933348
vt 0.240887 0.933348
vt 0.240887 0.933348
vt 0.240887 0.933348
vt 0.240887 0.933348
vt 0.240887 0.933348
vt 0.240887 0.933348
vt 0.240887 0.933348
vt 0.240887 0.933348
vt 0.240887 0.933348
vt 0.240887 0.933348
vt 0.240887 0.933348
vt 0.240887 0.933348
vt 0.240887 0.933348
vt 0.240887 0.933348
vt 0.240887 0.933348
vt 0.240887 0.933348
vt 0.240887 0.933348
vt 0.240887 0.933348
vt 0.240887 0.933348
vt 0.240887 0.933348
vt 0.240887 0.933348
vt 0.240887 0.933348
vt 0.240887 0.933348
vt 0.240887 0.933348
vt 0.240887 0.933348
vt 0.240887 0.933348
vt 0.240887 0.933348
vt 0.240887 0.933348
vt 0.240887 0.933348
vt 0.240887 0.933348
vt 0.240887 0.933348
vt 0.240887 0.933348
vt 0.240887 0.933348
vt 0.240887 0.933348
vt 0.240887 0.933348
vt 0.240887 0.933348
vt 0.240887 0.933348
vt 0.240887 0.933348
vt 0.240887 0.933348
vt 0.240887 0.933348
vt 0.240887 0.933348
vt 0.240887 0.933348
vt 0.240887 0.933348
vt 0.240887 0.933348
vt 0.240887 0.933348
vt 0.240887 0.933348
vt 0.240887 0.933348
vt 0.240887 0.933348
vt 0.240887 0.933348
vt 0.240887 0.933348
vt 0.240887 0.933348
vt 0.240887 0.933348
vt 0.240887 0.933348
vt 0.240887 0.933348
vt 0.240887 0.933348
vt 0.240887 0.933348
vt 0.240887 0.933348
vt 0.240887 0.933348
vt 0.240887 0.933348
vt 0.240887 0.933348
vt 0.240887 0.933348
vt 0.240887 0.933348
vt 0.240887 0.933348
vt 0.240887 0.933348
vt 0.240887 0.933348
vt 0.240887 0.933348
vt 0.240887 0.933348
vt 0.240887 0.933348
vt 0.240887 0.933348
vt 0.240887 0.933348
vt 0.240887 0.933348
vt 0.240887 0.933348
vt 0.240887 0.933348
vn 0.0000 0.9720 0.2349
vn 0.0000 0.8266 0.5628
vn 1.0000 0.0000 0.0000
vn 0.0000 0.4716 0.8818
vn 0.0000 1.0000 0.0000
vn 0.0000 0.9983 0.0581
vn -1.0000 0.0000 0.0000
vn 0.0000 0.0000 1.0000
vn 0.0000 0.9720 -0.2349
vn 0.0000 0.8266 -0.5628
vn 0.0000 0.4716 -0.8818
vn 0.0000 0.9983 -0.0581
vn 0.0000 0.0000 -1.0000
vn 0.0000 -0.9720 0.2349
vn 0.0000 -0.8266 0.5628
vn 0.0000 -0.4716 0.8818
vn 0.0000 -1.0000 0.0000
vn 0.0000 -0.9983 0.0581
vn 0.0000 -0.9720 -0.2349
vn 0.0000 -0.8266 -0.5628
vn 0.0000 -0.4716 -0.8818
vn 0.0000 -0.9983 -0.0581
usemtl fant_wing
s 1
f 110/1/1 109/2/2 103/3/2 104/4/1
f 2/5/3 47/6/3 46/7/3 102/8/3
f 81/9/3 101/10/3 102/8/3 46/7/3
f 105/11/3 106/12/3 47/6/3
f 3/13/3 105/11/3 47/6/3
f 2/5/3 3/13/3 47/6/3
f 109/2/2 111/14/4 4/15/4 103/3/2
f 107/16/5 108/17/6 1/18/6 25/19/5
f 108/17/6 110/1/1 104/4/1 1/18/6
f 6/20/7 5/21/7 49/22/7 50/23/7
f 82/24/7 49/22/7 5/21/7 26/25/7
f 8/26/7 50/23/7 112/27/7
f 7/28/7 50/23/7 8/26/7
f 6/20/7 50/23/7 7/28/7
f 111/14/4 48/29/8 45/30/8 4/15/4
f 122/31/1 116/32/1 115/33/2 121/34/2
f 10/35/7 114/36/7 60/37/7 61/38/7
f 99/39/7 60/37/7 114/36/7 113/40/7
f 117/41/7 61/38/7 118/42/7
f 11/43/7 61/38/7 117/41/7
f 10/35/7 61/38/7 11/43/7
f 121/34/2 115/33/2 12/44/4 123/45/4
f 119/46/5 35/47/5 9/48/6 120/49/6
f 120/49/6 9/48/6 116/32/1 122/31/1
f 14/50/3 64/51/3 63/52/3 13/53/3
f 100/54/3 36/55/3 13/53/3 63/52/3
f 16/56/3 124/57/3 64/51/3
f 15/58/3 16/56/3 64/51/3
f 14/50/3 15/58/3 64/51/3
f 123/45/4 12/44/4 59/59/8 62/60/8
f 132/61/9 127/62/9 126/63/10 131/64/10
f 18/65/3 125/66/3 76/67/3 77/68/3
f 81/9/3 76/67/3 125/66/3 101/10/3
f 128/69/3 77/68/3 129/70/3
f 19/71/3 77/68/3 128/69/3
f 18/65/3 77/68/3 19/71/3
f 131/64/10 126/63/10 20/72/11 133/73/11
f 107/16/5 25/19/5 17/74/12 130/75/12
f 130/75/12 17/74/12 127/62/9 132/61/9
f 22/76/7 80/77/7 79/78/7 21/79/7
f 82/24/7 26/25/7 21/79/7 79/78/7
f 24/80/7 134/81/7 80/77/7
f 23/82/7 24/80/7 80/77/7
f 22/76/7 23/82/7 80/77/7
f 133/73/11 20/72/11 75/83/13 78/84/13
f 142/85/9 141/86/10 136/87/10 137/88/9
f 28/89/7 95/90/7 94/91/7 135/92/7
f 99/39/7 113/40/7 135/92/7 94/91/7
f 138/93/7 139/94/7 95/90/7
f 29/95/7 138/93/7 95/90/7
f 28/89/7 29/95/7 95/90/7
f 141/86/10 143/96/11 30/97/11 136/87/10
f 119/46/5 140/98/12 27/99/12 35/47/5
f 140/98/12 142/85/9 137/88/9 27/99/12
f 32/100/3 31/101/3 97/102/3 98/103/3
f 100/54/3 97/102/3 31/101/3 36/55/3
f 34/104/3 98/103/3 144/105/3
f 33/106/3 98/103/3 34/104/3
f 32/100/3 98/103/3 33/106/3
f 143/96/11 96/107/13 93/108/13 30/97/11
f 153/109/14 148/110/14 147/111/15 152/112/15
f 38/113/3 146/114/3 46/7/3 47/6/3
f 81/9/3 46/7/3 146/114/3 145/115/3
f 149/116/3 47/6/3 106/12/3
f 39/117/3 47/6/3 149/116/3
f 38/113/3 47/6/3 39/117/3
f 152/112/15 147/111/15 40/118/16 154/119/16
f 150/120/17 73/121/17 37/122/18 151/123/18
f 151/123/18 37/122/18 148/110/14 153/109/14
f 42/124/7 50/23/7 49/22/7 41/125/7
f 82/24/7 74/126/7 41/125/7 49/22/7
f 44/127/7 112/27/7 50/23/7
f 43/128/7 44/127/7 50/23/7
f 42/124/7 43/128/7 50/23/7
f 154/119/16 40/118/16 45/30/8 48/29/8
f 163/129/14 162/130/15 157/131/15 158/132/14
f 52/133/7 61/38/7 60/37/7 156/134/7
f 99/39/7 155/135/7 156/134/7 60/37/7
f 159/136/7 118/42/7 61/38/7
f 53/137/7 159/136/7 61/38/7
f 52/133/7 53/137/7 61/38/7
f 162/130/15 164/138/16 54/139/16 157/131/15
f 160/140/17 161/141/18 51/142/18 91/143/17
f 161/141/18 163/129/14 158/132/14 51/142/18
f 56/144/3 55/145/3 63/52/3 64/51/3
f 100/54/3 63/52/3 55/145/3 92/146/3
f 58/147/3 64/51/3 124/57/3
f 57/148/3 64/51/3 58/147/3
f 56/144/3 64/51/3 57/148/3
f 164/138/16 62/60/8 59/59/8 54/139/16
f 171/149/19 170/150/20 166/151/20 167/152/19
f 66/153/3 77/68/3 76/67/3 165/154/3
f 81/9/3 145/115/3 165/154/3 76/67/3
f 168/155/3 129/70/3 77/68/3
f 67/156/3 168/155/3 77/68/3
f 66/153/3 67/156/3 77/68/3
f 170/150/20 172/157/21 68/158/21 166/151/20
f 150/120/17 169/159/22 65/160/22 73/121/17
f 169/159/22 171/149/19 167/152/19 65/160/22
f 70/161/7 69/162/7 79/78/7 80/77/7
f 82/24/7 79/78/7 69/162/7 74/126/7
f 72/163/7 80/77/7 134/81/7
f 71/164/7 80/77/7 72/163/7
f 70/161/7 80/77/7 71/164/7
f 172/157/21 78/84/13 75/83/13 68/158/21
f 179/165/19 175/166/19 174/167/20 178/168/20
f 84/169/7 173/170/7 94/91/7 95/90/7
f 99/39/7 94/91/7 173/170/7 155/135/7
f 176/171/7 95/90/7 139/94/7
f 85/172/7 95/90/7 176/171/7
f 84/169/7 95/90/7 85/172/7
f 178/168/20 174/167/20 86/173/21 180/174/21
f 160/140/17 91/143/17 83/175/22 177/176/22
f 177/176/22 83/175/22 175/166/19 179/165/19
f 88/177/3 98/103/3 97/102/3 87/178/3
f 100/54/3 92/146/3 87/178/3 97/102/3
f 90/179/3 144/105/3 98/103/3
f 89/180/3 90/179/3 98/103/3
f 88/177/3 89/180/3 98/103/3
f 180/174/21 86/173/21 93/108/13 96/107/13
