# Blender v2.93.5 OBJ File: 'fant_wing_remake.blend'
# www.blender.org
mtllib fant_wing_1-1_block.mtl
o fant_wing_1-1_block_Cube.015
v 0.500000 0.500000 0.318635
v 0.500000 0.500000 0.500000
v 0.500000 0.235755 0.500000
v -0.500000 0.083419 0.425553
v -0.500000 0.069496 0.462776
v -0.500000 0.039247 0.490026
v 0.500000 0.500000 0.000000
v 0.500000 0.500000 -0.318635
v 0.500000 0.500000 -0.500000
v 0.500000 0.235755 -0.500000
v -0.500000 0.133145 0.000000
v -0.500000 0.083419 -0.425553
v -0.500000 0.069496 -0.462776
v -0.500000 0.039247 -0.490026
v 0.500000 0.000000 0.500000
v 0.500000 -0.500000 0.318635
v 0.500000 -0.500000 0.500000
v 0.500000 -0.235755 0.500000
v 0.500000 0.000000 0.318635
v -0.500000 0.000000 0.500000
v -0.500000 -0.083419 0.425553
v -0.500000 -0.069496 0.462776
v -0.500000 -0.039247 0.490026
v -0.500000 0.000000 0.425553
v 0.500000 -0.500000 0.000000
v 0.500000 0.000000 -0.500000
v 0.500000 -0.500000 -0.318635
v 0.500000 -0.500000 -0.500000
v 0.500000 -0.235755 -0.500000
v 0.500000 0.000000 0.000000
v 0.500000 0.000000 -0.318635
v -0.500000 -0.133145 0.000000
v -0.500000 0.000000 -0.500000
v -0.500000 -0.083419 -0.425553
v -0.500000 -0.069496 -0.462776
v -0.500000 -0.039247 -0.490026
v -0.500000 0.000000 0.000000
v -0.500000 0.000000 -0.425553
v 0.500000 0.500000 0.500000
v 0.500000 0.500000 0.318635
v 0.500000 0.235755 0.500000
v 0.500000 0.500000 0.000000
v 0.500000 0.000000 0.500000
v -0.500000 0.069496 0.462776
v -0.500000 0.083419 0.425553
v -0.500000 0.039247 0.490026
v -0.500000 0.133145 0.000000
v -0.500000 0.000000 0.500000
v 0.500000 0.500000 -0.500000
v 0.500000 0.500000 -0.318635
v 0.500000 0.235755 -0.500000
v 0.500000 0.000000 -0.500000
v -0.500000 0.069496 -0.462776
v -0.500000 0.083419 -0.425553
v -0.500000 0.039247 -0.490026
v -0.500000 0.000000 -0.500000
v 0.500000 -0.500000 0.500000
v 0.500000 -0.500000 0.318635
v 0.500000 -0.235755 0.500000
v 0.500000 -0.500000 0.000000
v -0.500000 -0.069496 0.462776
v -0.500000 -0.083419 0.425553
v -0.500000 -0.039247 0.490026
v -0.500000 -0.133145 0.000000
v 0.500000 -0.500000 -0.500000
v 0.500000 -0.500000 -0.318635
v 0.500000 -0.235755 -0.500000
v -0.500000 -0.069496 -0.462776
v -0.500000 -0.083419 -0.425553
v -0.500000 -0.039247 -0.490026
vt 0.240887 0.933348
vt 0.240887 0.933348
vt 0.240887 0.933348
vt 0.240887 0.933348
vt 0.240887 0.933348
vt 0.240887 0.933348
vt 0.240887 0.933348
vt 0.240887 0.933348
vt 0.240887 0.933348
vt 0.240887 0.933348
vt 0.240887 0.933348
vt 0.240887 0.933348
vt 0.240887 0.933348
vt 0.240887 0.933348
vt 0.240887 0.933348
vt 0.240887 0.933348
vt 0.240887 0.933348
vt 0.240887 0.933348
vt 0.240887 0.933348
vt 0.240887 0.933348
vt 0.240887 0.933348
vt 0.240887 0.933348
vt 0.240887 0.933348
vt 0.240887 0.933348
vt 0.240887 0.933348
vt 0.240887 0.933348
vt 0.240887 0.933348
vt 0.240887 0.933348
vt 0.240887 0.933348
vt 0.240887 0.933348
vt 0.240887 0.933348
vt 0.240887 0.933348
vt 0.240887 0.933348
vt 0.240887 0.933348
vt 0.240887 0.933348
vt 0.240887 0.933348
vt 0.240887 0.933348
vt 0.240887 0.933348
vt 0.240887 0.933348
vt 0.240887 0.933348
vt 0.240887 0.933348
vt 0.240887 0.933348
vt 0.240887 0.933348
vt 0.240887 0.933348
vt 0.240887 0.933348
vt 0.240887 0.933348
vt 0.240887 0.933348
vt 0.240887 0.933348
vt 0.240887 0.933348
vt 0.240887 0.933348
vt 0.240887 0.933348
vt 0.240887 0.933348
vt 0.240887 0.933348
vt 0.240887 0.933348
vt 0.240887 0.933348
vt 0.240887 0.933348
vt 0.240887 0.933348
vt 0.240887 0.933348
vt 0.240887 0.933348
vt 0.240887 0.933348
vt 0.240887 0.933348
vt 0.240887 0.933348
vt 0.240887 0.933348
vt 0.240887 0.933348
vt 0.240887 0.933348
vt 0.240887 0.933348
vt 0.240887 0.933348
vt 0.240887 0.933348
vt 0.240887 0.933348
vt 0.240887 0.933348
vn -0.3759 0.9247 0.0602
vn -0.2618 0.5982 0.7573
vn -0.3165 0.7333 0.6017
vn -0.3736 0.9256 0.0605
vn 1.0000 0.0000 0.0000
vn -0.0282 0.0613 0.9977
vn -0.0331 0.0676 0.9971
vn -0.3618 0.9322 0.0000
vn -1.0000 0.0000 0.0000
vn -0.0085 0.0000 0.9999
vn -0.3759 0.9247 -0.0602
vn -0.3736 0.9256 -0.0605
vn -0.3165 0.7333 -0.6017
vn -0.2618 0.5982 -0.7573
vn -0.0331 0.0676 -0.9971
vn -0.0282 0.0613 -0.9977
vn -0.0085 0.0000 -0.9999
vn -0.3759 -0.9247 0.0602
vn -0.3736 -0.9256 0.0605
vn -0.3165 -0.7333 0.6017
vn -0.2618 -0.5982 0.7573
vn -0.0331 -0.0676 0.9971
vn -0.0282 -0.0613 0.9977
vn -0.3618 -0.9322 0.0000
vn -0.3759 -0.9247 -0.0602
vn -0.2618 -0.5982 -0.7573
vn -0.3165 -0.7333 -0.6017
vn -0.3736 -0.9256 -0.0605
vn -0.0282 -0.0613 -0.9977
vn -0.0331 -0.0676 -0.9971
usemtl fant_wing
s 1
f 45/1/1 44/2/2 39/3/3 40/4/4
f 1/5/5 19/6/5 30/7/5 42/8/5
f 41/9/5 43/10/5 19/6/5
f 2/11/5 41/9/5 19/6/5
f 1/5/5 2/11/5 19/6/5
f 44/2/2 46/12/6 3/13/7 39/3/3
f 47/14/8 45/1/1 40/4/4 7/15/8
f 4/16/9 11/17/9 37/18/9 24/19/9
f 6/20/9 24/19/9 48/21/9
f 5/22/9 24/19/9 6/20/9
f 4/16/9 24/19/9 5/22/9
f 46/12/6 20/23/10 15/24/10 3/13/7
f 54/25/11 50/26/12 49/27/13 53/28/14
f 8/29/5 42/8/5 30/7/5 31/30/5
f 51/31/5 31/30/5 52/32/5
f 9/33/5 31/30/5 51/31/5
f 8/29/5 31/30/5 9/33/5
f 53/28/14 49/27/13 10/34/15 55/35/16
f 47/14/8 7/15/8 50/26/12 54/25/11
f 12/36/9 38/37/9 37/18/9 11/17/9
f 14/38/9 56/39/9 38/37/9
f 13/40/9 14/38/9 38/37/9
f 12/36/9 13/40/9 38/37/9
f 55/35/16 10/34/15 26/41/17 33/42/17
f 62/43/18 58/44/19 57/45/20 61/46/21
f 16/47/5 60/48/5 30/7/5 19/6/5
f 59/49/5 19/6/5 43/10/5
f 17/50/5 19/6/5 59/49/5
f 16/47/5 19/6/5 17/50/5
f 61/46/21 57/45/20 18/51/22 63/52/23
f 64/53/24 25/54/24 58/44/19 62/43/18
f 21/55/9 24/19/9 37/18/9 32/56/9
f 23/57/9 48/21/9 24/19/9
f 22/58/9 23/57/9 24/19/9
f 21/55/9 22/58/9 24/19/9
f 63/52/23 18/51/22 15/24/10 20/23/10
f 69/59/25 68/60/26 65/61/27 66/62/28
f 27/63/5 31/30/5 30/7/5 60/48/5
f 67/64/5 52/32/5 31/30/5
f 28/65/5 67/64/5 31/30/5
f 27/63/5 28/65/5 31/30/5
f 68/60/26 70/66/29 29/67/30 65/61/27
f 64/53/24 69/59/25 66/62/28 25/54/24
f 34/68/9 32/56/9 37/18/9 38/37/9
f 36/69/9 38/37/9 56/39/9
f 35/70/9 38/37/9 36/69/9
f 34/68/9 38/37/9 35/70/9
f 70/66/29 33/42/17 26/41/17 29/67/30
