# Blender v2.93.5 OBJ File: 'fant_laser.blend'
# www.blender.org
mtllib fant_laser_prisma.mtl
o fant_laser_prisma_Cube.001
v 0.000000 -0.500000 0.500000
v 0.000000 0.500000 0.500000
v -0.500000 -0.500000 -0.500000
v -0.500000 0.500000 -0.500000
v 0.500000 -0.500000 -0.500000
v 0.500000 0.500000 -0.500000
vt 0.239258 0.900391
vt 0.239258 0.900391
vt 0.239258 0.900391
vt 0.239258 0.900391
vt 0.239258 0.900391
vt 0.239258 0.900391
vn -0.8944 0.0000 0.4472
vn 0.0000 0.0000 -1.0000
vn 0.8944 0.0000 0.4472
vn 0.0000 -1.0000 0.0000
vn 0.0000 1.0000 0.0000
usemtl glass_dif
s off
f 1/1/1 2/2/1 4/3/1 3/4/1
f 3/4/2 4/3/2 6/5/2 5/6/2
f 5/6/3 6/5/3 2/2/3 1/1/3
f 3/4/4 5/6/4 1/1/4
f 6/5/5 4/3/5 2/2/5
