# Blender v2.92.0 OBJ File: 'fant_customizable_engine_v8-test.blend'
# www.blender.org
mtllib fant_customizable_engine_v8_collider.mtl
o hitbox_Cube
v 0.791532 0.000000 3.000000
v 0.791532 -0.000000 -3.000000
v 0.925236 -2.000000 -3.000000
v 0.557977 2.000000 3.000000
v 0.557977 2.000000 -3.000000
v 0.925236 -2.000000 3.000000
v 2.500000 0.000000 3.000000
v 2.500000 -0.000000 -3.000000
v 2.500000 -0.671481 -3.000000
v 2.500000 -0.671480 3.000000
v -0.791532 0.000000 3.000000
v -0.791532 -0.000000 -3.000000
v -0.925236 -2.000000 -3.000000
v -0.557977 2.000000 3.000000
v 0.000000 2.000000 3.000000
v 0.000000 -2.000000 3.000000
v 0.000000 2.000000 -3.000000
v 0.000000 -2.000000 -3.000000
v -0.557977 2.000000 -3.000000
v -0.925236 -2.000000 3.000000
v -2.500000 0.000000 3.000000
v -2.500000 -0.000000 -3.000000
v 0.000000 -0.000000 -3.000000
v 0.000000 0.000000 3.000000
v -2.500000 -0.671481 -3.000000
v -2.500000 -0.671480 3.000000
vt 0.500000 0.414577
vt 0.625000 0.414577
vt 0.535819 0.500000
vt 0.500000 0.500000
vt 0.500000 0.375000
vt 0.625000 0.375000
vt 0.710423 0.500000
vt 0.750000 0.500000
vt 0.750000 0.750000
vt 0.710423 0.750000
vt 0.250000 0.500000
vt 0.289577 0.500000
vt 0.289577 0.750000
vt 0.250000 0.750000
vt 0.500000 0.835423
vt 0.625000 0.835423
vt 0.625000 0.875000
vt 0.500000 0.875000
vt 0.500000 0.750000
vt 0.535819 0.750000
vt 0.375000 0.835423
vt 0.375000 0.875000
vt 0.344868 0.805291
vt 0.344868 0.444709
vt 0.375000 0.414577
vt 0.375000 0.375000
vt 0.500000 0.414577
vt 0.500000 0.500000
vt 0.535819 0.500000
vt 0.625000 0.414577
vt 0.710423 0.500000
vt 0.710423 0.750000
vt 0.289577 0.750000
vt 0.289577 0.500000
vt 0.500000 0.835423
vt 0.625000 0.835423
vt 0.500000 0.750000
vt 0.535819 0.750000
vt 0.375000 0.835423
vt 0.344868 0.805291
vt 0.344868 0.444709
vt 0.375000 0.414577
vn 0.0000 0.0000 1.0000
vn 0.0000 -1.0000 0.0000
vn 0.0000 1.0000 -0.0000
vn 0.0000 -0.0000 -1.0000
vn 1.0000 0.0000 0.0000
vn 0.7174 0.6966 -0.0000
vn 0.6448 -0.7643 0.0000
vn -1.0000 0.0000 0.0000
vn -0.7174 0.6966 -0.0000
vn -0.6448 -0.7643 0.0000
usemtl None
s off
f 1/1/1 6/2/1 10/3/1 7/4/1
f 24/5/1 16/6/1 6/2/1 1/1/1
f 6/7/2 16/8/2 18/9/2 3/10/2
f 15/11/3 4/12/3 5/13/3 17/14/3
f 2/15/4 3/16/4 18/17/4 23/18/4
f 8/19/4 9/20/4 3/16/4 2/15/4
f 7/4/5 10/3/5 9/20/5 8/19/5
f 5/21/4 2/15/4 23/18/4 17/22/4
f 5/23/4 8/19/4 2/15/4
f 4/24/6 7/4/6 8/19/6 5/23/6
f 4/25/1 1/1/1 7/4/1
f 15/26/1 24/5/1 1/1/1 4/25/1
f 6/7/7 3/10/7 9/20/7 10/3/7
f 11/27/1 21/28/1 26/29/1 20/30/1
f 24/5/1 11/27/1 20/30/1 16/6/1
f 20/31/2 13/32/2 18/9/2 16/8/2
f 15/11/3 17/14/3 19/33/3 14/34/3
f 12/35/4 23/18/4 18/17/4 13/36/4
f 22/37/4 12/35/4 13/36/4 25/38/4
f 21/28/8 22/37/8 25/38/8 26/29/8
f 19/39/4 17/22/4 23/18/4 12/35/4
f 19/40/4 12/35/4 22/37/4
f 14/41/9 19/40/9 22/37/9 21/28/9
f 14/42/1 21/28/1 11/27/1
f 15/26/1 14/42/1 11/27/1 24/5/1
f 20/31/10 26/29/10 25/38/10 13/32/10
