# Blender v2.92.0 OBJ File: 'fant_homing_carrot.blend'
# www.blender.org
mtllib fant_homing_carrot.mtl
o fant_homing_carrot_Mesh.001
v 2.980208 -0.002580 0.066267
v 2.855041 -0.019407 0.145258
v 2.980208 -0.055535 0.020324
v 2.854472 -0.134233 0.045636
v 2.980208 -0.041133 -0.047283
v 2.854701 -0.103004 -0.100961
v 2.980208 0.026223 -0.068947
v 2.855041 0.043050 -0.147938
v 2.980208 0.079178 -0.023005
v 2.854472 0.157876 -0.048317
v 2.980208 0.064776 0.044603
v 2.854700 0.126647 0.098281
v -2.307310 0.029020 0.291050
v -1.683755 0.038491 0.451582
v -2.307312 -0.181151 0.210021
v -1.684232 -0.197413 0.403979
v -2.170189 -0.179488 0.369310
v -2.170189 -0.343925 0.226648
v -2.307312 -0.287916 0.016081
v -1.684806 -0.448233 0.025041
v -2.170189 -0.413042 0.023074
v -2.307310 -0.204662 -0.188479
v -2.170189 -0.368322 -0.186861
v -2.170189 -0.221745 -0.346908
v -2.307312 -0.005403 -0.292394
v -2.170189 -0.012589 -0.414179
v -2.307312 0.204767 -0.211363
v -2.170189 0.203106 -0.370653
v -2.170189 0.367541 -0.227989
v -2.307312 0.311532 -0.017424
v -2.170190 0.436660 -0.024417
v -2.307312 0.228279 0.187136
v -2.170189 0.391939 0.185518
v -2.170189 0.245363 0.345563
v 2.103537 -0.040127 0.242524
v 0.384965 -0.171435 0.266303
v 0.370945 -0.322363 0.135770
v 0.409859 -0.356963 0.007586
v 2.094371 -0.224813 -0.117244
v 0.171709 -0.338707 -0.178378
v -1.684045 -0.243630 -0.379351
v 2.103538 0.063770 -0.245204
v -1.683491 -0.014875 -0.452926
v 2.093970 0.276294 -0.016122
v 2.094371 0.248454 0.114564
v -1.684272 0.267247 0.378006
v 2.096344 0.157211 0.214194
v -1.684159 -0.373390 0.245476
v -1.684403 -0.399808 -0.202283
v 2.095154 0.233267 -0.142847
v 0.172417 0.188608 -0.349120
v 0.173065 -0.010964 -0.389392
v 2.096344 -0.133568 -0.216874
v 0.362079 0.366537 0.104939
v 0.382807 0.231403 0.252491
v 0.389157 0.040282 0.315120
v 0.169329 0.408790 -0.027948
v 2.095153 -0.209625 0.140168
v 2.093969 -0.252652 0.013442
v -1.683999 0.221029 -0.405321
v -1.685740 0.476468 -0.026643
v -1.685441 0.427559 0.202963
v -1.684927 0.400874 -0.249290
v -2.170189 0.036206 0.412838
v -0.422298 -0.224106 -0.350419
v -0.421203 -0.012789 -0.418385
v -0.422264 0.205133 -0.374409
v -0.424124 0.371267 -0.230272
v -0.426992 0.443658 -0.024087
v -0.427277 0.399175 0.191160
v -0.424965 0.251479 0.352429
v -0.423601 0.041580 0.420518
v -0.422646 -0.182191 0.372316
v -0.422423 -0.343680 0.226588
v -0.423709 -0.412759 0.023126
v -0.422893 -0.368064 -0.186695
v 1.141768 0.040731 0.301219
v 1.140264 -0.132485 0.270181
v 1.133908 -0.266917 0.160333
v 1.123550 -0.326545 0.001107
v 1.118513 -0.295390 -0.164831
v 1.116662 -0.181801 -0.293018
v 1.116535 -0.016214 -0.349107
v 1.117753 0.157002 -0.318069
v 1.117546 0.291434 -0.208221
v 1.122702 0.351062 -0.048995
v 1.127338 0.319907 0.116943
v 1.138310 0.206318 0.245130
v -0.061783 -0.402875 0.022596
v -0.046021 -0.336816 0.197347
v -0.041917 -0.178728 0.338183
v -0.041581 0.041162 0.386583
v -0.044538 0.245015 0.320252
v -0.052404 0.388667 0.163400
v 0.171413 0.340752 -0.217119
v 0.172298 -0.204487 -0.327149
v -2.654678 -0.463452 -0.094654
v -2.675097 -0.157926 -0.492127
v -2.536986 -0.291746 0.119047
v -2.513681 0.106279 -0.252387
v -2.285377 0.093670 -0.092655
v -2.295131 -0.066910 0.101770
v -2.570827 -0.069928 0.022122
v -2.593842 0.065115 -0.147953
v -2.810546 -0.235546 -0.159390
v -2.824734 -0.139715 -0.299582
v -2.893794 -0.234523 -0.424500
v -2.905387 -0.379555 -0.225283
v -2.319786 0.040517 0.005890
v -2.548279 -0.006478 -0.078544
v -2.843096 -0.162327 -0.210757
v -2.769751 -0.015889 -0.202977
v -2.846849 -0.078691 -0.252588
v -2.744631 -0.072629 -0.136018
v -2.820690 -0.134167 -0.175202
v -2.641893 -0.340763 0.050138
v -2.687689 -0.425647 -0.030153
v -2.742302 -0.136924 -0.061621
v -2.824412 -0.194928 -0.116739
v -2.719356 -0.051946 -0.427907
v -2.668729 0.041834 -0.329078
v -2.821503 0.477702 0.105676
v -2.928424 0.100265 0.486448
v -2.533273 0.339347 -0.140272
v -2.455679 -0.128602 0.271147
v -2.269690 -0.101495 0.100901
v -2.234529 0.068842 -0.054244
v -2.519653 0.072803 -0.025403
v -2.516577 -0.040444 0.208774
v -2.827521 0.318410 0.226280
v -2.918128 0.134207 0.351930
v -3.012459 0.201398 0.387200
v -2.991713 0.446496 0.201603
v -2.307015 -0.026858 0.040786
v -2.487266 0.068154 0.139369
v -2.802949 0.229679 0.285563
v -2.631220 0.148439 0.298723
v -2.800535 0.177821 0.322591
v -2.624683 0.230727 0.270150
v -2.690963 0.251361 0.293927
v -2.555676 0.389110 -0.079937
v -2.756525 0.446151 0.042549
v -2.613154 0.209121 0.088041
v -2.749101 0.316212 0.207524
v -2.827546 0.037661 0.456191
v -2.672605 0.041681 0.416353
v 2.096344 -0.133568 -0.216874
v 2.854701 -0.103004 -0.100961
v -0.422298 -0.224106 -0.350419
v 0.172298 -0.204487 -0.327149
v 0.172298 -0.204487 -0.327149
v 2.980208 -0.002580 0.066267
v 2.980208 -0.055535 0.020324
v 2.980208 -0.041133 -0.047283
v 2.980208 -0.041133 -0.047283
v 2.980208 0.026223 -0.068947
v 2.980208 0.079178 -0.023005
v 2.980208 0.064776 0.044603
v -2.307310 0.029020 0.291050
v -2.307312 -0.181151 0.210021
v -2.307312 -0.287916 0.016081
v -2.307310 -0.204662 -0.188479
v -2.307310 -0.204662 -0.188479
v -2.170189 -0.221745 -0.346908
v -2.307312 -0.005403 -0.292394
v -2.307312 0.204767 -0.211363
v -2.307312 0.311532 -0.017424
v -2.307312 0.228279 0.187136
v 1.116662 -0.181801 -0.293018
v 0.169329 0.408790 -0.027948
v -1.684045 -0.243630 -0.379351
v 0.389157 0.040282 0.315120
v 0.384965 -0.171435 0.266303
v 0.370945 -0.322363 0.135770
v 0.409859 -0.356963 0.007586
v 0.362079 0.366537 0.104939
v 0.382807 0.231403 0.252491
vt 0.056626 0.315319
vt 0.151262 0.394185
vt 0.121151 0.431805
vt 0.005890 0.352178
vt 0.083334 0.468095
vt 0.037315 0.502874
vt 0.155834 0.037504
vt 0.300439 0.005900
vt 0.291757 0.087801
vt 0.168305 0.096920
vt 0.275018 0.159366
vt 0.156929 0.156784
vt 0.260389 0.203929
vt 0.242074 0.245074
vt 0.130851 0.214084
vt 0.221141 0.283189
vt 0.188232 0.338420
vt 0.097800 0.268175
vt 0.244560 0.769674
vt 0.172697 0.769064
vt 0.175093 0.717215
vt 0.243116 0.717733
vt 0.314870 0.769743
vt 0.315267 0.738485
vt 0.052455 0.786616
vt 0.015998 0.730985
vt 0.045947 0.671598
vt 0.112352 0.667840
vt 0.044164 0.280079
vt 0.069917 0.242814
vt 0.015461 0.297114
vt 0.125760 0.108753
vt 0.122833 0.079897
vt 0.116234 0.152045
vt 0.096220 0.198423
vt 0.450123 0.930570
vt 0.517672 0.932251
vt 0.517766 0.991921
vt 0.417637 0.991921
vt 0.384658 0.931162
vt 0.317403 0.933137
vt 0.318904 0.991921
vt 0.250674 0.933948
vt 0.229544 0.991921
vt 0.180968 0.943571
vt 0.916589 0.935531
vt 0.981350 0.937793
vt 0.993216 0.991921
vt 0.913896 0.991921
vt 0.850929 0.932187
vt 0.818016 0.991921
vt 0.786293 0.931378
vt 0.718996 0.932507
vt 0.718744 0.991921
vt 0.651209 0.930597
vt 0.618285 0.991921
vt 0.585358 0.930582
vt 0.396181 0.451578
vt 0.384965 0.677375
vt 0.324506 0.605759
vt 0.324566 0.512036
vt 0.326530 0.336078
vt 0.300451 0.380279
vt 0.518388 0.773602
vt 0.450231 0.773009
vt 0.446970 0.740893
vt 0.518628 0.741519
vt 0.350745 0.291585
vt 0.375440 0.245814
vt 0.399675 0.197021
vt 0.720792 0.771482
vt 0.651342 0.771319
vt 0.657379 0.739025
vt 0.724438 0.719189
vt 0.584189 0.772486
vt 0.587320 0.740139
vt 0.856506 0.776665
vt 0.789576 0.773829
vt 0.793765 0.723789
vt 0.859724 0.728235
vt 0.922486 0.778972
vt 0.923281 0.731966
vt 0.988635 0.778684
vt 0.985031 0.731845
vt 0.177044 0.578046
vt 0.129005 0.630396
vt 0.215299 0.525669
vt 0.247667 0.475350
vt 0.383512 0.771045
vt 0.377702 0.738608
vt 0.274420 0.426176
vt 0.424458 0.143427
vt 0.449980 0.082630
vt 0.472001 0.010497
vt 0.148810 0.723471
vt 0.118861 0.782858
vt 0.550362 0.523253
vt 0.550303 0.616975
vt 0.478687 0.677434
vt 0.489904 0.451637
vt 0.517400 0.859084
vt 0.584641 0.858314
vt 0.651881 0.858268
vt 0.719718 0.859007
vt 0.787227 0.859899
vt 0.853788 0.861546
vt 0.920851 0.863988
vt 0.990363 0.865710
vt 0.169843 0.863722
vt 0.244937 0.860438
vt 0.315049 0.859170
vt 0.383265 0.858661
vt 0.450256 0.858756
vt 0.356802 0.413603
vt 0.326121 0.468063
vt 0.298853 0.525592
vt 0.269525 0.560727
vt 0.251825 0.634414
vt 0.198454 0.698121
vt 0.577852 0.044444
vt 0.539289 0.123607
vt 0.501673 0.186790
vt 0.469276 0.239030
vt 0.445135 0.292533
vt 0.410021 0.316321
vt 0.385517 0.364502
vt 0.310620 0.695507
vt 0.362597 0.698352
vt 0.438572 0.698086
vt 0.519203 0.697963
vt 0.595852 0.697051
vt 0.672701 0.699751
vt 0.698193 0.010670
vt 0.778467 0.011413
vt 0.775887 0.112836
vt 0.708258 0.118337
vt 0.723396 0.387261
vt 0.784382 0.367728
vt 0.715327 0.529978
vt 0.838688 0.007359
vt 0.905035 0.098935
vt 0.838579 0.115938
vt 0.585737 0.142420
vt 0.613668 0.404664
vt 0.851031 0.388871
vt 0.958029 0.377114
vt 0.872003 0.524832
vt 0.839617 0.211860
vt 0.841831 0.301877
vt 0.777496 0.309561
vt 0.779076 0.220727
vt 0.930507 0.192588
vt 0.951529 0.294521
vt 0.723397 0.304821
vt 0.716456 0.215188
vt 0.602251 0.323093
vt 0.592827 0.222897
vt 0.698193 0.010670
vt 0.778467 0.011413
vt 0.775887 0.112836
vt 0.708258 0.118337
vt 0.723396 0.387261
vt 0.784382 0.367728
vt 0.715327 0.529978
vt 0.838688 0.007359
vt 0.905035 0.098935
vt 0.838579 0.115938
vt 0.585737 0.142420
vt 0.613668 0.404664
vt 0.851031 0.388871
vt 0.958029 0.377114
vt 0.872003 0.524832
vt 0.839617 0.211860
vt 0.841831 0.301877
vt 0.777496 0.309561
vt 0.779076 0.220727
vt 0.930507 0.192588
vt 0.951529 0.294521
vt 0.723397 0.304821
vt 0.716456 0.215188
vt 0.602251 0.323093
vt 0.592827 0.222897
vn 0.3510 -0.8798 0.3203
vn 0.1042 -0.7919 0.6016
vn 0.1123 -0.9917 0.0626
vn 0.3092 -0.9236 -0.2267
vn 0.1178 -0.8878 -0.4448
vn 0.1088 -0.7369 -0.6672
vn 0.3009 -0.2432 -0.9221
vn 0.1200 -0.2214 -0.9677
vn 0.1310 0.1943 -0.9721
vn 0.3306 0.1892 -0.9246
vn 0.1183 0.7922 -0.5986
vn 0.3510 0.8798 -0.3203
vn 0.1144 0.9916 -0.0600
vn 0.1080 0.8877 0.4475
vn 0.3492 0.6793 0.6454
vn 0.1007 0.4980 0.8613
vn 0.1095 -0.1938 0.9749
vn 0.3306 -0.1892 0.9246
vn 0.0371 -0.8896 -0.4552
vn 0.0376 -0.7482 -0.6623
vn 0.0456 -0.7453 -0.6652
vn 0.0589 -0.8906 -0.4510
vn 0.0340 -0.9979 0.0557
vn 0.0592 -0.9968 0.0544
vn 1.0000 0.0000 0.0000
vn 0.5497 -0.7915 0.2671
vn 0.5417 -0.1671 0.8238
vn 0.4957 -0.8495 -0.1804
vn 0.5417 0.1671 -0.8238
vn 0.4878 -0.2680 -0.8308
vn 0.5497 0.7915 -0.2671
vn 0.5465 0.6192 0.5638
vn -0.3890 -0.4068 0.8265
vn -0.4059 0.0513 0.9125
vn -0.7192 0.0387 0.6937
vn -0.7121 -0.4596 0.5307
vn -0.3896 -0.7673 0.5094
vn -0.4069 -0.9119 0.0534
vn -0.7284 -0.6839 0.0404
vn -0.3901 -0.8209 -0.4171
vn -0.6930 -0.6297 -0.3512
vn -0.3210 -0.7025 -0.6351
vn -0.4058 -0.0513 -0.9125
vn -0.4260 -0.3090 -0.8503
vn -0.6987 -0.2766 -0.6598
vn -0.7192 -0.0387 -0.6937
vn -0.3899 0.4041 -0.8274
vn -0.7121 0.4596 -0.5307
vn -0.3931 0.7645 -0.5109
vn -0.4113 0.9099 -0.0533
vn -0.7284 0.6839 -0.0404
vn -0.3937 0.8182 0.4189
vn -0.7132 0.5165 0.4738
vn -0.3905 0.4951 0.7761
vn -1.0000 0.0000 0.0000
vn 0.0443 0.5301 0.8468
vn 0.0353 0.0473 0.9982
vn 0.0570 0.0519 0.9970
vn 0.0546 -0.4511 0.8908
vn 0.1174 -0.4516 0.8844
vn 0.1270 0.0486 0.9907
vn 0.0572 0.8921 0.4482
vn 0.0682 0.9945 -0.0793
vn 0.0717 0.8031 -0.5914
vn 0.0405 0.9968 -0.0690
vn 0.0439 0.8892 0.4553
vn 0.0823 0.8905 0.4474
vn 0.0672 0.9977 -0.0128
vn 0.0518 0.5385 0.8410
vn 0.1143 0.5394 0.8343
vn 0.0389 0.4414 -0.8965
vn 0.0407 0.8272 -0.5603
vn 0.0514 0.8222 -0.5668
vn 0.0470 0.4361 -0.8986
vn 0.0381 -0.0560 -0.9977
vn 0.0453 -0.0596 -0.9972
vn 0.0368 -0.3061 -0.9513
vn 0.0473 -0.3060 -0.9508
vn 0.0654 -0.8946 -0.4419
vn 0.0645 -0.7429 -0.6663
vn 0.0618 -0.9955 0.0716
vn 0.0536 -0.8089 0.5855
vn 0.0415 -0.8299 0.5563
vn 0.0863 -0.8270 0.5556
vn 0.0381 -0.4118 0.9104
vn 0.0706 0.4087 -0.9099
vn 0.0700 -0.0511 -0.9962
vn 0.0717 -0.2708 -0.9599
vn -0.0269 0.0544 0.9981
vn -0.0280 0.5400 0.8412
vn -0.0283 0.8891 0.4568
vn -0.0277 0.9978 -0.0606
vn -0.0267 0.8291 -0.5585
vn -0.0260 0.4411 -0.8970
vn -0.0258 -0.0560 -0.9981
vn -0.0251 -0.3061 -0.9517
vn -0.0231 -0.7470 -0.6644
vn -0.0229 -0.8921 -0.4512
vn -0.0220 -0.9980 0.0586
vn -0.0228 -0.8338 0.5516
vn -0.0251 -0.4489 0.8932
vn 0.0157 0.0593 0.9981
vn 0.0198 -0.4507 0.8925
vn 0.0396 -0.8220 0.5680
vn 0.0488 -0.9980 0.0404
vn 0.0403 -0.3128 -0.9489
vn 0.0552 0.9802 -0.1901
vn 0.0523 0.9238 0.3792
vn 0.0271 0.5607 0.8276
vn 0.0934 -0.9863 0.1360
vn 0.1141 -0.8447 0.5229
vn 0.1529 -0.4544 0.8776
vn 0.1658 0.0472 0.9850
vn 0.1490 0.5399 0.8284
vn 0.1181 0.8394 0.5305
vn -0.2789 0.5918 0.7563
vn -0.2696 0.7444 0.6108
vn -0.3468 0.7134 0.6089
vn -0.4070 0.5446 0.7333
vn -0.8650 -0.2523 0.4338
vn -0.9548 0.1742 0.2408
vn -0.7796 0.1011 0.6180
vn -0.2333 0.8241 0.5161
vn -0.2678 0.9468 0.1784
vn -0.3670 0.8281 0.4237
vn -0.4394 0.2782 0.8541
vn -0.8221 -0.4257 0.3779
vn -0.8533 0.3741 -0.3631
vn -0.6869 0.4627 -0.5604
vn -0.7502 0.6429 -0.1541
vn -0.6296 0.7178 0.2974
vn -0.9279 0.3691 -0.0517
vn -0.7957 0.3930 0.4607
vn -0.5692 0.5718 0.5908
vn -0.5220 0.8480 -0.0913
vn -0.7836 0.3638 -0.5036
vn -0.9123 -0.0264 0.4086
vn -0.6391 0.3921 0.6616
vn -0.8643 -0.3656 0.3453
vn -0.6254 0.0923 0.7748
vn -0.2227 -0.7185 -0.6589
vn -0.4182 -0.7204 -0.5532
vn -0.6808 -0.5970 -0.4243
vn -0.5487 -0.6389 -0.5392
vn -0.3464 -0.5911 -0.7284
vn -0.0642 -0.5833 -0.8097
vn -0.3179 -0.5646 -0.7617
vn -0.4964 -0.5618 -0.6618
vn -0.5888 -0.6174 -0.5216
vn -0.6753 -0.4734 -0.5655
vn -0.7365 -0.2660 -0.6218
vn -0.4317 -0.5961 -0.6769
vn -0.4140 -0.6027 -0.6821
vn -0.3786 -0.8083 -0.4509
vn -0.4802 -0.5589 -0.6760
vn -0.5769 -0.3692 -0.7286
vn -0.0851 -0.6107 -0.7872
vn -0.2696 -0.6493 -0.7111
vn -0.6498 -0.5806 -0.4905
vn -0.4665 -0.6230 -0.6279
vn -0.2091 -0.7483 -0.6295
vn -0.4345 -0.7038 -0.5619
vn -0.7924 -0.5575 -0.2475
vn -0.5901 -0.5508 -0.5902
vn -0.8131 -0.3179 -0.4877
usemtl carrot_texture
s 1
f 4/1/1 58/2/2 59/3/3
f 148/4/4 39/5/5 147/6/6
f 6/7/7 53/8/8 42/9/9 8/10/10
f 8/10/10 42/9/9 50/11/11 10/12/12
f 10/12/12 50/11/11 44/13/13
f 10/12/12 44/13/13 45/14/14 12/15/15
f 12/15/15 45/14/14 47/16/16
f 12/15/15 47/16/16 35/17/17 2/18/18
f 4/1/1 59/3/3 39/5/5 148/4/4
f 76/19/19 149/20/20 150/21/21 40/22/22
f 75/23/23 76/19/19 40/22/22 89/24/24
f 152/25/25 153/26/25 154/27/25 156/28/25
f 2/18/18 4/1/1 3/29/26 1/30/27
f 4/1/1 148/4/4 155/31/28 3/29/26
f 6/7/7 8/10/10 7/32/29 5/33/30
f 8/10/10 10/12/12 157/34/31 7/32/29
f 10/12/12 12/15/15 158/35/32 157/34/31
f 12/15/15 2/18/18 1/30/27 158/35/32
f 17/36/33 64/37/34 159/38/35 160/39/36
f 18/40/37 17/36/33 160/39/36
f 21/41/38 18/40/37 160/39/36 161/42/39
f 23/43/40 21/41/38 161/42/39 162/44/41
f 164/45/42 23/43/40 162/44/41
f 26/46/43 24/47/44 163/48/45 165/49/46
f 28/50/47 26/46/43 165/49/46 166/51/48
f 29/52/49 28/50/47 166/51/48
f 31/53/50 29/52/49 166/51/48 167/54/51
f 33/55/52 31/53/50 167/54/51 168/56/53
f 34/57/54 33/55/52 168/56/53
f 64/37/34 34/57/54 168/56/53 159/38/35
f 22/58/55 30/59/55 27/60/55 25/61/55
f 88/62/56 77/63/57 35/17/17 47/16/16
f 72/64/58 73/65/59 91/66/60 92/67/61
f 87/68/62 88/62/56 47/16/16 45/14/14
f 86/69/63 87/68/62 45/14/14 44/13/13
f 85/70/64 86/69/63 44/13/13 50/11/11
f 69/71/65 70/72/66 94/73/67 170/74/68
f 70/72/66 71/75/69 93/76/70 94/73/67
f 67/77/71 68/78/72 95/79/73 51/80/74
f 66/81/75 67/77/71 51/80/74 52/82/76
f 65/83/77 66/81/75 52/82/76 151/84/78
f 81/85/79 169/86/80 147/6/6 39/5/5
f 80/87/81 81/85/79 39/5/5 59/3/3
f 79/88/82 80/87/81 59/3/3 58/2/2
f 74/89/83 75/23/23 89/24/24 90/90/84
f 78/91/85 79/88/82 58/2/2 35/17/17
f 71/75/69 72/64/58 92/67/61 93/76/70
f 68/78/72 69/71/65 170/74/68 95/79/73
f 2/18/18 35/17/17 58/2/2 4/1/1
f 73/65/59 74/89/83 90/90/84 91/66/60
f 84/92/86 85/70/64 50/11/11 42/9/9
f 83/93/87 84/92/86 42/9/9
f 82/94/88 83/93/87 42/9/9 53/8/8
f 77/63/57 78/91/85 35/17/17
f 152/25/25 156/28/25 9/95/25 11/96/25
f 15/97/55 13/98/55 32/99/55 19/100/55
f 19/100/55 32/99/55 30/59/55 22/58/55
f 14/101/89 46/102/90 34/57/54 64/37/34
f 46/102/90 62/103/91 33/55/52 34/57/54
f 62/103/91 61/104/92 31/53/50 33/55/52
f 61/104/92 63/105/93 29/52/49 31/53/50
f 63/105/93 60/106/94 28/50/47 29/52/49
f 60/106/94 43/107/95 26/46/43 28/50/47
f 43/107/95 171/108/96 24/47/44 26/46/43
f 41/109/97 49/110/98 23/43/40 164/45/42
f 49/110/98 20/111/99 21/41/38 23/43/40
f 20/111/99 48/112/100 18/40/37 21/41/38
f 48/112/100 16/113/101 17/36/33 18/40/37
f 16/113/101 14/101/89 64/37/34 17/36/33
f 171/108/96 43/107/95 66/81/75 65/83/77
f 43/107/95 60/106/94 67/77/71 66/81/75
f 60/106/94 63/105/93 68/78/72 67/77/71
f 63/105/93 61/104/92 69/71/65 68/78/72
f 61/104/92 62/103/91 70/72/66 69/71/65
f 62/103/91 46/102/90 71/75/69 70/72/66
f 46/102/90 14/101/89 72/64/58 71/75/69
f 14/101/89 16/113/101 73/65/59 72/64/58
f 16/113/101 48/112/100 74/89/83 73/65/59
f 48/112/100 20/111/99 75/23/23 74/89/83
f 20/111/99 49/110/98 76/19/19 75/23/23
f 49/110/98 41/109/97 149/20/20 76/19/19
f 172/114/102 173/115/103 78/91/85 77/63/57
f 173/115/103 174/116/104 79/88/82 78/91/85
f 174/116/104 175/117/105 80/87/81 79/88/82
f 175/117/105 40/118/22 81/85/79 80/87/81
f 40/118/22 150/119/21 169/86/80 81/85/79
f 96/120/106 52/121/76 83/93/87 82/94/88
f 52/121/76 51/122/74 84/92/86 83/93/87
f 95/123/73 85/70/64 84/92/86 51/122/74
f 95/123/73 57/124/107 86/69/63 85/70/64
f 57/124/107 176/125/108 87/68/62 86/69/63
f 176/125/108 177/126/109 88/62/56 87/68/62
f 177/126/109 172/114/102 77/63/57 88/62/56
f 89/24/24 40/22/22 38/127/110
f 90/90/84 89/24/24 38/127/110 37/128/111
f 91/66/60 90/90/84 37/128/111 36/129/112
f 92/67/61 91/66/60 36/129/112 56/130/113
f 93/76/70 92/67/61 56/130/113 55/131/114
f 94/73/67 93/76/70 55/131/114 54/132/115
f 170/74/68 94/73/67 54/132/115
f 102/133/116 109/134/117 110/135/118 103/136/119
f 105/137/120 111/138/121 108/139/122
f 101/140/123 100/141/124 104/142/125
f 102/133/116 103/136/119 99/143/126
f 97/144/127 105/137/120 108/139/122
f 106/145/128 98/146/129 107/147/130
f 110/135/118 109/134/117 101/140/123 104/142/125
f 107/147/130 111/138/121 106/145/128
f 107/147/130 108/139/122 111/138/121
f 112/148/131 113/149/132 115/150/133 114/151/134
f 113/149/132 112/148/131 121/152/135 120/153/136
f 114/151/134 115/150/133 119/154/137 118/155/138
f 117/156/139 116/157/140 118/155/138 119/154/137
f 103/136/119 110/135/118 114/151/134 118/155/138
f 119/154/137 115/150/133 111/138/121
f 99/143/126 103/136/119 118/155/138 116/157/140
f 104/142/125 100/141/124 121/152/135 112/148/131
f 117/156/139 119/154/137 105/137/120 97/144/127
f 113/149/132 120/153/136 98/146/129 106/145/128
f 114/151/134 110/135/118 104/142/125 112/148/131
f 111/138/121 115/150/133 113/149/132
f 111/138/121 113/149/132 106/145/128
f 119/154/137 111/138/121 105/137/120
f 127/158/141 134/159/142 135/160/143 128/161/144
f 130/162/145 136/163/146 133/164/147
f 126/165/148 125/166/149 129/167/150
f 127/158/141 128/161/144 124/168/151
f 122/169/152 130/162/145 133/164/147
f 131/170/153 123/171/154 132/172/155
f 135/160/143 134/159/142 126/165/148 129/167/150
f 132/172/155 136/163/146 131/170/153
f 132/172/155 133/164/147 136/163/146
f 137/173/156 138/174/157 140/175/158 139/176/159
f 138/174/157 137/173/156 146/177/160 145/178/161
f 139/176/159 140/175/158 144/179/162 143/180/163
f 142/181/164 141/182/165 143/180/163 144/179/162
f 128/161/144 135/160/143 139/176/159 143/180/163
f 144/179/162 140/175/158 136/163/146
f 124/168/151 128/161/144 143/180/163 141/182/165
f 129/167/150 125/166/149 146/177/160 137/173/156
f 142/181/164 144/179/162 130/162/145 122/169/152
f 138/174/157 145/178/161 123/171/154 131/170/153
f 139/176/159 135/160/143 129/167/150 137/173/156
f 136/163/146 140/175/158 138/174/157
f 136/163/146 138/174/157 131/170/153
f 144/179/162 136/163/146 130/162/145
