# Blender v3.1.2 OBJ File: 'fant_panels.blend'
# www.blender.org
mtllib fant_panel_1x1_slope.mtl
o fant_panel_1x1_slope_Cube.009
v -0.500000 -0.500000 -0.500000
v -0.500000 0.500000 0.500000
v -0.500000 0.358580 0.500000
v -0.500000 -0.500000 -0.358579
v 0.500000 0.500000 0.500000
v 0.500000 -0.500000 -0.500000
v 0.500000 -0.500000 -0.358579
v 0.500000 0.358580 0.500000
vt 0.238281 0.877966
vt 0.238281 0.877966
vt 0.238281 0.877966
vt 0.238281 0.877966
vt 0.238281 0.877966
vt 0.238281 0.877966
vt 0.238281 0.877966
vt 0.238281 0.877966
vn -1.0000 0.0000 0.0000
vn 1.0000 0.0000 0.0000
vn 0.0000 -0.7071 0.7071
vn 0.0000 0.7071 -0.7071
vn 0.0000 0.0000 1.0000
vn 0.0000 -1.0000 0.0000
usemtl Material
s off
f 2/1/1 1/2/1 4/3/1 3/4/1
f 7/5/2 6/6/2 5/7/2 8/8/2
f 7/5/3 8/8/3 3/4/3 4/3/3
f 1/2/4 2/1/4 5/7/4 6/6/4
f 2/1/5 3/4/5 8/8/5 5/7/5
f 6/6/6 7/5/6 4/3/6 1/2/6
