# Blender v2.92.0 OBJ File: 'suspension_panel_1x1s.blend'
# www.blender.org
mtllib fant_suspension_panel_1x1b.mtl
o suspension_panel_1x1b_Cube.002
v -0.065263 -0.500000 0.495722
v -0.129410 -0.500000 0.482963
v -0.191342 -0.500000 0.461940
v -0.250000 -0.500000 0.433013
v -0.304381 -0.500000 0.396677
v -0.353553 -0.500000 0.353553
v -0.396677 -0.500000 0.304381
v -0.433013 -0.500000 0.250000
v -0.461940 -0.500000 0.191342
v -0.482963 -0.500000 0.129410
v -0.495722 -0.500000 0.065263
v -0.500000 -0.400000 0.000000
v 0.000000 -0.400000 0.500000
v -0.495722 -0.400000 0.065263
v -0.482963 -0.400000 0.129410
v -0.461940 -0.400000 0.191342
v -0.433013 -0.400000 0.250000
v -0.396677 -0.400000 0.304381
v -0.353553 -0.400000 0.353553
v -0.304381 -0.400000 0.396677
v -0.250000 -0.400000 0.433013
v -0.191342 -0.400000 0.461940
v -0.129410 -0.400000 0.482963
v -0.065263 -0.400000 0.495722
v 0.000000 -0.500000 0.500000
v 0.495722 -0.500000 0.065263
v 0.482963 -0.500000 0.129410
v 0.461940 -0.500000 0.191342
v 0.433013 -0.500000 0.250000
v 0.396677 -0.500000 0.304381
v 0.353553 -0.500000 0.353553
v 0.304381 -0.500000 0.396677
v 0.250000 -0.500000 0.433013
v 0.191342 -0.500000 0.461940
v 0.129410 -0.500000 0.482963
v 0.065263 -0.500000 0.495722
v 0.065263 -0.400000 0.495722
v 0.129410 -0.400000 0.482963
v 0.191342 -0.400000 0.461940
v 0.250000 -0.400000 0.433013
v 0.304381 -0.400000 0.396677
v 0.353553 -0.400000 0.353553
v 0.396677 -0.400000 0.304381
v 0.433013 -0.400000 0.250000
v 0.461940 -0.400000 0.191342
v 0.482963 -0.400000 0.129410
v 0.495722 -0.400000 0.065263
v -0.500000 -0.500000 0.000000
v 0.000000 -0.500000 -0.500000
v -0.495722 -0.500000 -0.065263
v -0.482963 -0.500000 -0.129410
v -0.461940 -0.500000 -0.191342
v -0.433013 -0.500000 -0.250000
v -0.396677 -0.500000 -0.304381
v -0.353553 -0.500000 -0.353553
v -0.304381 -0.500000 -0.396677
v -0.250000 -0.500000 -0.433013
v -0.191342 -0.500000 -0.461940
v -0.129410 -0.500000 -0.482963
v -0.065263 -0.500000 -0.495722
v -0.065263 -0.400000 -0.495722
v -0.129410 -0.400000 -0.482963
v -0.191342 -0.400000 -0.461940
v -0.250000 -0.400000 -0.433013
v -0.304381 -0.400000 -0.396677
v -0.353553 -0.400000 -0.353553
v -0.396677 -0.400000 -0.304381
v -0.433013 -0.400000 -0.250000
v -0.461940 -0.400000 -0.191342
v -0.482963 -0.400000 -0.129410
v -0.495722 -0.400000 -0.065263
v 0.500000 -0.500000 0.000000
v 0.065263 -0.500000 -0.495722
v 0.129410 -0.500000 -0.482963
v 0.191342 -0.500000 -0.461940
v 0.250000 -0.500000 -0.433013
v 0.304381 -0.500000 -0.396677
v 0.353553 -0.500000 -0.353553
v 0.396677 -0.500000 -0.304381
v 0.433013 -0.500000 -0.250000
v 0.461940 -0.500000 -0.191342
v 0.482963 -0.500000 -0.129410
v 0.495722 -0.500000 -0.065263
v 0.500000 -0.400000 0.000000
v 0.000000 -0.400000 -0.500000
v 0.495722 -0.400000 -0.065263
v 0.482963 -0.400000 -0.129410
v 0.461940 -0.400000 -0.191342
v 0.433013 -0.400000 -0.250000
v 0.396677 -0.400000 -0.304381
v 0.353553 -0.400000 -0.353553
v 0.304381 -0.400000 -0.396677
v 0.250000 -0.400000 -0.433013
v 0.191342 -0.400000 -0.461940
v 0.129410 -0.400000 -0.482963
v 0.065263 -0.400000 -0.495722
v 0.000000 -0.400000 0.500000
v -0.065263 -0.400000 0.495722
v -0.129410 -0.500000 0.482963
v -0.065263 -0.500000 0.495722
v -0.129410 -0.400000 0.482963
v -0.191342 -0.500000 0.461940
v -0.191342 -0.400000 0.461940
v -0.250000 -0.500000 0.433013
v -0.250000 -0.400000 0.433013
v -0.304381 -0.500000 0.396677
v -0.304381 -0.400000 0.396677
v -0.353553 -0.500000 0.353553
v -0.353553 -0.400000 0.353553
v -0.396677 -0.500000 0.304381
v -0.396677 -0.400000 0.304381
v -0.433013 -0.500000 0.250000
v -0.433013 -0.400000 0.250000
v -0.461940 -0.500000 0.191342
v -0.461940 -0.400000 0.191342
v -0.482963 -0.500000 0.129410
v -0.482963 -0.400000 0.129410
v -0.495722 -0.500000 0.065263
v -0.495722 -0.400000 0.065263
v -0.500000 -0.400000 0.000000
v 0.000000 -0.500000 0.500000
v 0.065263 -0.500000 0.495722
v 0.129410 -0.400000 0.482963
v 0.065263 -0.400000 0.495722
v 0.129410 -0.500000 0.482963
v 0.191342 -0.400000 0.461940
v 0.191342 -0.500000 0.461940
v 0.250000 -0.400000 0.433013
v 0.250000 -0.500000 0.433013
v 0.304381 -0.400000 0.396677
v 0.304381 -0.500000 0.396677
v 0.353553 -0.400000 0.353553
v 0.353553 -0.500000 0.353553
v 0.396677 -0.400000 0.304381
v 0.396677 -0.500000 0.304381
v 0.433013 -0.400000 0.250000
v 0.433013 -0.500000 0.250000
v 0.461940 -0.400000 0.191342
v 0.461940 -0.500000 0.191342
v 0.482963 -0.400000 0.129410
v 0.482963 -0.500000 0.129410
v 0.495722 -0.400000 0.065263
v 0.495722 -0.500000 0.065263
v 0.000000 -0.500000 -0.500000
v -0.065263 -0.500000 -0.495722
v -0.129410 -0.400000 -0.482963
v -0.065263 -0.400000 -0.495722
v -0.129410 -0.500000 -0.482963
v -0.191342 -0.400000 -0.461940
v -0.191342 -0.500000 -0.461940
v -0.250000 -0.400000 -0.433013
v -0.250000 -0.500000 -0.433013
v -0.304381 -0.400000 -0.396677
v -0.304381 -0.500000 -0.396677
v -0.353553 -0.400000 -0.353553
v -0.353553 -0.500000 -0.353553
v -0.396677 -0.400000 -0.304381
v -0.396677 -0.500000 -0.304381
v -0.433013 -0.400000 -0.250000
v -0.433013 -0.500000 -0.250000
v -0.461940 -0.400000 -0.191342
v -0.461940 -0.500000 -0.191342
v -0.482963 -0.400000 -0.129410
v -0.482963 -0.500000 -0.129410
v -0.495722 -0.400000 -0.065263
v -0.495722 -0.500000 -0.065263
v -0.500000 -0.500000 0.000000
v 0.495722 -0.400000 -0.065263
v 0.500000 -0.400000 0.000000
v 0.500000 -0.500000 0.000000
v 0.495722 -0.500000 -0.065263
v 0.482963 -0.400000 -0.129410
v 0.482963 -0.500000 -0.129410
v 0.461940 -0.400000 -0.191342
v 0.461940 -0.500000 -0.191342
v 0.433013 -0.400000 -0.250000
v 0.433013 -0.500000 -0.250000
v 0.396677 -0.400000 -0.304381
v 0.396677 -0.500000 -0.304381
v 0.353553 -0.400000 -0.353553
v 0.353553 -0.500000 -0.353553
v 0.304381 -0.400000 -0.396677
v 0.304381 -0.500000 -0.396677
v 0.250000 -0.400000 -0.433013
v 0.250000 -0.500000 -0.433013
v 0.191342 -0.400000 -0.461940
v 0.191342 -0.500000 -0.461940
v 0.129410 -0.400000 -0.482963
v 0.129410 -0.500000 -0.482963
v 0.065263 -0.400000 -0.495722
v 0.065263 -0.500000 -0.495722
v 0.000000 -0.400000 -0.500000
vt 0.238275 0.784562
vt 0.238275 0.784562
vt 0.238275 0.784562
vt 0.238275 0.784562
vt 0.238275 0.784562
vt 0.238275 0.784562
vt 0.238275 0.784562
vt 0.238275 0.784562
vt 0.238275 0.784562
vt 0.238275 0.784562
vt 0.238275 0.784562
vt 0.238275 0.784562
vt 0.238275 0.784562
vt 0.238275 0.784562
vt 0.238275 0.784562
vt 0.238275 0.784562
vt 0.238275 0.784562
vt 0.238275 0.784562
vt 0.238275 0.784562
vt 0.238275 0.784562
vt 0.238275 0.784562
vt 0.238275 0.784562
vt 0.238275 0.784562
vt 0.238275 0.784562
vt 0.238275 0.784562
vt 0.238275 0.784562
vt 0.238275 0.784562
vt 0.238275 0.784562
vt 0.238275 0.784562
vt 0.238275 0.784562
vt 0.238275 0.784562
vt 0.238275 0.784562
vt 0.238275 0.784562
vt 0.238275 0.784562
vt 0.238275 0.784562
vt 0.238275 0.784562
vt 0.238275 0.784562
vt 0.238275 0.784562
vt 0.238275 0.784562
vt 0.238275 0.784562
vt 0.238275 0.784562
vt 0.238275 0.784562
vt 0.238275 0.784562
vt 0.238275 0.784562
vt 0.238275 0.784562
vt 0.238275 0.784562
vt 0.238275 0.784562
vt 0.238275 0.784562
vt 0.238275 0.784562
vt 0.238275 0.784562
vt 0.238275 0.784562
vt 0.238275 0.784562
vt 0.238275 0.784562
vt 0.238275 0.784562
vt 0.238275 0.784562
vt 0.238275 0.784562
vt 0.238275 0.784562
vt 0.238275 0.784562
vt 0.238275 0.784562
vt 0.238275 0.784562
vt 0.238275 0.784562
vt 0.238275 0.784562
vt 0.238275 0.784562
vt 0.238275 0.784562
vt 0.238275 0.784562
vt 0.238275 0.784562
vt 0.238275 0.784562
vt 0.238275 0.784562
vt 0.238275 0.784562
vt 0.238275 0.784562
vt 0.238275 0.784562
vt 0.238275 0.784562
vt 0.238275 0.784562
vt 0.238275 0.784562
vt 0.238275 0.784562
vt 0.238275 0.784562
vt 0.238275 0.784562
vt 0.238275 0.784562
vt 0.238275 0.784562
vt 0.238275 0.784562
vt 0.238275 0.784562
vt 0.238275 0.784562
vt 0.238275 0.784562
vt 0.238275 0.784562
vt 0.238275 0.784562
vt 0.238275 0.784562
vt 0.238275 0.784562
vt 0.238275 0.784562
vt 0.238275 0.784562
vt 0.238275 0.784562
vt 0.238275 0.784562
vt 0.238275 0.784562
vt 0.238275 0.784562
vt 0.238275 0.784562
vt 0.238275 0.784562
vt 0.238275 0.784562
vt 0.238275 0.784562
vt 0.238275 0.784562
vt 0.238275 0.784562
vt 0.238275 0.784562
vt 0.238275 0.784562
vt 0.238275 0.784562
vt 0.238275 0.784562
vt 0.238275 0.784562
vt 0.238275 0.784562
vt 0.238275 0.784562
vt 0.238275 0.784562
vt 0.238275 0.784562
vt 0.238275 0.784562
vt 0.238275 0.784562
vt 0.238275 0.784562
vt 0.238275 0.784562
vt 0.238275 0.784562
vt 0.238275 0.784562
vt 0.238275 0.784562
vt 0.238275 0.784562
vt 0.238275 0.784562
vt 0.238275 0.784562
vt 0.238275 0.784562
vt 0.238275 0.784562
vt 0.238275 0.784562
vt 0.238275 0.784562
vt 0.238275 0.784562
vt 0.238275 0.784562
vt 0.238275 0.784562
vt 0.238275 0.784562
vt 0.238275 0.784562
vt 0.238275 0.784562
vt 0.238275 0.784562
vt 0.238275 0.784562
vt 0.238275 0.784562
vt 0.238275 0.784562
vt 0.238275 0.784562
vt 0.238275 0.784562
vt 0.238275 0.784562
vt 0.238275 0.784562
vt 0.238275 0.784562
vt 0.238275 0.784562
vt 0.238275 0.784562
vt 0.238275 0.784562
vt 0.238275 0.784562
vt 0.238275 0.784562
vt 0.238275 0.784562
vt 0.238275 0.784562
vt 0.238275 0.784562
vt 0.238275 0.784562
vt 0.238275 0.784562
vt 0.238275 0.784562
vt 0.238275 0.784562
vt 0.238275 0.784562
vt 0.238275 0.784562
vt 0.238275 0.784562
vt 0.238275 0.784562
vt 0.238275 0.784562
vt 0.238275 0.784562
vt 0.238275 0.784562
vt 0.238275 0.784562
vt 0.238275 0.784562
vt 0.238275 0.784562
vt 0.238275 0.784562
vt 0.238275 0.784562
vt 0.238275 0.784562
vt 0.238275 0.784562
vt 0.238275 0.784562
vt 0.238275 0.784562
vt 0.238275 0.784562
vt 0.238275 0.784562
vt 0.238275 0.784562
vt 0.238275 0.784562
vt 0.238275 0.784562
vt 0.238275 0.784562
vt 0.238275 0.784562
vt 0.238275 0.784562
vt 0.238275 0.784562
vt 0.238275 0.784562
vt 0.238275 0.784562
vt 0.238275 0.784562
vt 0.238275 0.784562
vt 0.238275 0.784562
vt 0.238275 0.784562
vt 0.238275 0.784562
vt 0.238275 0.784562
vt 0.238275 0.784562
vt 0.238275 0.784562
vt 0.238275 0.784562
vt 0.238275 0.784562
vt 0.238275 0.784562
vt 0.238275 0.784562
vt 0.238275 0.784562
vt 0.238275 0.784562
vt 0.238275 0.784562
vt 0.238275 0.784562
vn 0.0000 -1.0000 0.0000
vn 0.0000 0.0000 1.0000
vn -0.1305 0.0000 0.9914
vn -0.2588 0.0000 0.9659
vn -0.3827 0.0000 0.9239
vn -0.5000 0.0000 0.8660
vn -0.6088 0.0000 0.7933
vn -0.7071 0.0000 0.7071
vn -0.7933 0.0000 0.6088
vn -0.8660 0.0000 0.5000
vn -0.9239 0.0000 0.3827
vn -0.9659 0.0000 0.2588
vn -0.9914 0.0000 0.1305
vn -1.0000 0.0000 0.0000
vn 0.1305 0.0000 0.9914
vn 0.2588 0.0000 0.9659
vn 0.3827 0.0000 0.9239
vn 0.5000 0.0000 0.8660
vn 0.6088 0.0000 0.7933
vn 0.7071 0.0000 0.7071
vn 0.7933 0.0000 0.6088
vn 0.8660 0.0000 0.5000
vn 0.9239 0.0000 0.3827
vn 0.9659 0.0000 0.2588
vn 0.9914 0.0000 0.1305
vn 1.0000 0.0000 0.0000
vn 0.0000 1.0000 0.0000
vn 0.0000 0.0000 -1.0000
vn -0.1305 0.0000 -0.9914
vn -0.2588 0.0000 -0.9659
vn -0.3827 0.0000 -0.9239
vn -0.5000 0.0000 -0.8660
vn -0.6088 0.0000 -0.7933
vn -0.7071 0.0000 -0.7071
vn -0.7933 0.0000 -0.6088
vn -0.8660 0.0000 -0.5000
vn -0.9239 0.0000 -0.3827
vn -0.9659 0.0000 -0.2588
vn -0.9914 0.0000 -0.1305
vn 0.9914 0.0000 -0.1305
vn 0.9659 0.0000 -0.2588
vn 0.9239 0.0000 -0.3827
vn 0.8660 0.0000 -0.5000
vn 0.7933 0.0000 -0.6088
vn 0.7071 0.0000 -0.7071
vn 0.6088 0.0000 -0.7933
vn 0.5000 0.0000 -0.8660
vn 0.3827 0.0000 -0.9239
vn 0.2588 0.0000 -0.9659
vn 0.1305 0.0000 -0.9914
usemtl fant_color_palette
s 1
f 167/1/1 166/2/1 164/3/1 162/4/1 160/5/1 158/6/1 156/7/1 154/8/1 152/9/1 150/10/1 148/11/1 145/12/1 144/13/1 191/14/1 189/15/1 187/16/1 185/17/1 183/18/1 181/19/1 179/20/1 177/21/1 175/22/1 173/23/1 171/24/1 72/25/1 143/26/1 141/27/1 139/28/1 137/29/1 135/30/1 133/31/1 131/32/1 129/33/1 127/34/1 125/35/1 122/36/1 121/37/1 1/38/1 99/39/1 102/40/1 104/41/1 106/42/1 108/43/1 110/44/1 112/45/1 114/46/1 116/47/1 118/48/1
f 25/49/2 97/50/2 98/51/3 100/52/3
f 100/52/3 98/51/3 101/53/4 2/54/4
f 2/54/4 101/53/4 103/55/5 3/56/5
f 3/56/5 103/55/5 105/57/6 4/58/6
f 4/58/6 105/57/6 107/59/7 5/60/7
f 5/60/7 107/59/7 109/61/8 6/62/8
f 6/62/8 109/61/8 111/63/9 7/64/9
f 7/64/9 111/63/9 113/65/10 8/66/10
f 8/66/10 113/65/10 115/67/11 9/68/11
f 9/68/11 115/67/11 117/69/12 10/70/12
f 10/70/12 117/69/12 119/71/13 11/72/13
f 11/72/13 119/71/13 120/73/14 48/74/14
f 97/50/2 25/49/2 36/75/15 124/76/15
f 124/76/15 36/75/15 35/77/16 123/78/16
f 123/78/16 35/77/16 34/79/17 126/80/17
f 126/80/17 34/79/17 33/81/18 128/82/18
f 128/82/18 33/81/18 32/83/19 130/84/19
f 130/84/19 32/83/19 31/85/20 132/86/20
f 132/86/20 31/85/20 30/87/21 134/88/21
f 134/88/21 30/87/21 29/89/22 136/90/22
f 136/90/22 29/89/22 28/91/23 138/92/23
f 138/92/23 28/91/23 27/93/24 140/94/24
f 140/94/24 27/93/24 26/95/25 142/96/25
f 142/96/25 26/95/25 170/97/26 84/98/26
f 169/99/27 168/100/27 172/101/27 174/102/27 176/103/27 178/104/27 180/105/27 182/106/27 184/107/27 186/108/27 188/109/27 190/110/27 192/111/27 61/112/27 146/113/27 149/114/27 151/115/27 153/116/27 155/117/27 157/118/27 159/119/27 161/120/27 163/121/27 165/122/27 12/123/27 14/124/27 15/125/27 16/126/27 17/127/27 18/128/27 19/129/27 20/130/27 21/131/27 22/132/27 23/133/27 24/134/27 13/135/27 37/136/27 38/137/27 39/138/27 40/139/27 41/140/27 42/141/27 43/142/27 44/143/27 45/144/27 46/145/27 47/146/27
f 85/147/28 49/148/28 60/149/29 147/150/29
f 147/150/29 60/149/29 59/151/30 62/152/30
f 62/152/30 59/151/30 58/153/31 63/154/31
f 63/154/31 58/153/31 57/155/32 64/156/32
f 64/156/32 57/155/32 56/157/33 65/158/33
f 65/158/33 56/157/33 55/159/34 66/160/34
f 66/160/34 55/159/34 54/161/35 67/162/35
f 67/162/35 54/161/35 53/163/36 68/164/36
f 68/164/36 53/163/36 52/165/37 69/166/37
f 69/166/37 52/165/37 51/167/38 70/168/38
f 70/168/38 51/167/38 50/169/39 71/170/39
f 71/170/39 50/169/39 48/74/14 120/73/14
f 84/98/26 170/97/26 83/171/40 86/172/40
f 86/172/40 83/171/40 82/173/41 87/174/41
f 87/174/41 82/173/41 81/175/42 88/176/42
f 88/176/42 81/175/42 80/177/43 89/178/43
f 89/178/43 80/177/43 79/179/44 90/180/44
f 90/180/44 79/179/44 78/181/45 91/182/45
f 91/182/45 78/181/45 77/183/46 92/184/46
f 92/184/46 77/183/46 76/185/47 93/186/47
f 93/186/47 76/185/47 75/187/48 94/188/48
f 94/188/48 75/187/48 74/189/49 95/190/49
f 95/190/49 74/189/49 73/191/50 96/192/50
f 96/192/50 73/191/50 49/148/28 85/147/28
