# Blender v2.91.0 OBJ File: 'fant_panels.blend'
# www.blender.org
mtllib fant_panel_edge_1x2.mtl
o fant_panel_edge_1x2_Cube.008
v -0.500000 -0.500000 1.000000
v -0.500000 -0.400000 1.000000
v -0.500000 -0.500000 -1.000000
v -0.500000 -0.400000 -1.000000
v 0.500000 -0.500000 1.000000
v 0.500000 -0.400000 1.000000
vt 0.232979 0.786399
vt 0.232979 0.786399
vt 0.232979 0.786399
vt 0.232979 0.786399
vt 0.232979 0.786399
vt 0.232979 0.786399
vn -1.0000 0.0000 0.0000
vn 0.8944 0.0000 -0.4472
vn 0.0000 0.0000 1.0000
vn 0.0000 -1.0000 0.0000
vn 0.0000 1.0000 0.0000
usemtl Material
s off
f 1/1/1 2/2/1 4/3/1 3/4/1
f 3/4/2 4/3/2 6/5/2 5/6/2
f 5/6/3 6/5/3 2/2/3 1/1/3
f 3/4/4 5/6/4 1/1/4
f 4/3/5 2/2/5 6/5/5
