# Blender v2.92.0 OBJ File: 'suspension_panel_1x1s.blend'
# www.blender.org
mtllib fant_suspension_panel_1x1a_collider.mtl
o suspension_panel_1x1a_collider_Cube.001
v -0.550000 -0.500000 -0.577558
v -0.550000 -0.400000 -0.577558
v 0.550000 -0.500000 -0.577558
v 0.550000 -0.400000 -0.577558
v -0.550000 -0.500000 -0.027558
v -0.071789 -0.500000 0.517736
v -0.142350 -0.500000 0.503701
v -0.210476 -0.500000 0.480575
v -0.275000 -0.500000 0.448756
v -0.334819 -0.500000 0.408786
v -0.388909 -0.500000 0.361350
v -0.436344 -0.500000 0.307260
v -0.476314 -0.500000 0.247442
v -0.508134 -0.500000 0.182918
v -0.531259 -0.500000 0.114792
v -0.545295 -0.500000 0.044231
v -0.550000 -0.400000 -0.027558
v -0.545295 -0.400000 0.044231
v -0.531259 -0.400000 0.114792
v -0.508134 -0.400000 0.182918
v -0.476314 -0.400000 0.247442
v -0.436344 -0.400000 0.307260
v -0.388909 -0.400000 0.361350
v -0.334819 -0.400000 0.408786
v -0.275000 -0.400000 0.448756
v -0.210476 -0.400000 0.480575
v -0.142350 -0.400000 0.503701
v -0.071789 -0.400000 0.517736
v 0.550000 -0.500000 -0.027558
v 0.000000 -0.500000 0.522442
v 0.545295 -0.500000 0.044231
v 0.531259 -0.500000 0.114792
v 0.508134 -0.500000 0.182918
v 0.476314 -0.500000 0.247442
v 0.436344 -0.500000 0.307260
v 0.388909 -0.500000 0.361350
v 0.334819 -0.500000 0.408786
v 0.275000 -0.500000 0.448756
v 0.210476 -0.500000 0.480575
v 0.142350 -0.500000 0.503701
v 0.071789 -0.500000 0.517736
v 0.000000 -0.400000 0.522442
v 0.550000 -0.400000 -0.027558
v 0.071789 -0.400000 0.517736
v 0.142350 -0.400000 0.503701
v 0.210476 -0.400000 0.480575
v 0.275000 -0.400000 0.448756
v 0.334819 -0.400000 0.408786
v 0.388909 -0.400000 0.361350
v 0.436344 -0.400000 0.307260
v 0.476314 -0.400000 0.247442
v 0.508134 -0.400000 0.182918
v 0.531259 -0.400000 0.114792
v 0.545295 -0.400000 0.044231
v -0.550000 -0.400000 -0.577558
v -0.550000 -0.400000 -0.577558
v -0.550000 -0.500000 -0.577558
v -0.550000 -0.500000 -0.577558
v 0.550000 -0.500000 -0.577558
v 0.550000 -0.500000 -0.577558
v 0.550000 -0.400000 -0.577558
v 0.550000 -0.400000 -0.577558
v -0.142350 -0.500000 0.503701
v -0.071789 -0.500000 0.517736
v -0.071789 -0.400000 0.517736
v -0.142350 -0.400000 0.503701
v -0.210476 -0.500000 0.480575
v -0.210476 -0.400000 0.480575
v -0.275000 -0.500000 0.448756
v -0.275000 -0.400000 0.448756
v -0.334819 -0.500000 0.408786
v -0.334819 -0.400000 0.408786
v -0.388909 -0.500000 0.361350
v -0.388909 -0.400000 0.361350
v -0.436344 -0.500000 0.307260
v -0.436344 -0.400000 0.307260
v -0.476314 -0.500000 0.247442
v -0.476314 -0.400000 0.247442
v -0.508134 -0.500000 0.182918
v -0.508134 -0.400000 0.182918
v -0.531259 -0.500000 0.114792
v -0.531259 -0.400000 0.114792
v -0.545295 -0.500000 0.044231
v -0.545295 -0.400000 0.044231
v -0.550000 -0.500000 -0.027558
v -0.550000 -0.400000 -0.027558
v 0.071789 -0.400000 0.517736
v 0.000000 -0.400000 0.522442
v 0.000000 -0.500000 0.522442
v 0.071789 -0.500000 0.517736
v 0.142350 -0.400000 0.503701
v 0.142350 -0.500000 0.503701
v 0.210476 -0.400000 0.480575
v 0.210476 -0.500000 0.480575
v 0.275000 -0.400000 0.448756
v 0.275000 -0.500000 0.448756
v 0.334819 -0.400000 0.408786
v 0.334819 -0.500000 0.408786
v 0.388909 -0.400000 0.361350
v 0.388909 -0.500000 0.361350
v 0.436344 -0.400000 0.307260
v 0.436344 -0.500000 0.307260
v 0.476314 -0.400000 0.247442
v 0.476314 -0.500000 0.247442
v 0.508134 -0.400000 0.182918
v 0.508134 -0.500000 0.182918
v 0.531259 -0.400000 0.114792
v 0.531259 -0.500000 0.114792
v 0.545295 -0.400000 0.044231
v 0.545295 -0.500000 0.044231
v 0.550000 -0.400000 -0.027558
v 0.550000 -0.500000 -0.027558
vt 0.238275 0.784562
vt 0.238275 0.784562
vt 0.238275 0.784562
vt 0.238275 0.784562
vt 0.238275 0.784562
vt 0.238275 0.784562
vt 0.238275 0.784562
vt 0.238275 0.784562
vt 0.238275 0.784562
vt 0.238275 0.784562
vt 0.238275 0.784562
vt 0.238275 0.784562
vt 0.238275 0.784562
vt 0.238275 0.784562
vt 0.238275 0.784562
vt 0.238275 0.784562
vt 0.238275 0.784562
vt 0.238275 0.784562
vt 0.238275 0.784562
vt 0.238275 0.784562
vt 0.238275 0.784562
vt 0.238275 0.784562
vt 0.238275 0.784562
vt 0.238275 0.784562
vt 0.238275 0.784562
vt 0.238275 0.784562
vt 0.238275 0.784562
vt 0.238275 0.784562
vt 0.238275 0.784562
vt 0.238275 0.784562
vt 0.238275 0.784562
vt 0.238275 0.784562
vt 0.238275 0.784562
vt 0.238275 0.784562
vt 0.238275 0.784562
vt 0.238275 0.784562
vt 0.238275 0.784562
vt 0.238275 0.784562
vt 0.238275 0.784562
vt 0.238275 0.784562
vt 0.238275 0.784562
vt 0.238275 0.784562
vt 0.238275 0.784562
vt 0.238275 0.784562
vt 0.238275 0.784562
vt 0.238275 0.784562
vt 0.238275 0.784562
vt 0.238275 0.784562
vt 0.238275 0.784562
vt 0.238275 0.784562
vt 0.238275 0.784562
vt 0.238275 0.784562
vt 0.238275 0.784562
vt 0.238275 0.784562
vt 0.238275 0.784562
vt 0.238275 0.784562
vt 0.238275 0.784562
vt 0.238275 0.784562
vt 0.238275 0.784562
vt 0.238275 0.784562
vt 0.238275 0.784562
vt 0.238275 0.784562
vt 0.238275 0.784562
vt 0.238275 0.784562
vt 0.238275 0.784562
vt 0.238275 0.784562
vt 0.238275 0.784562
vt 0.238275 0.784562
vt 0.238275 0.784562
vt 0.238275 0.784562
vt 0.238275 0.784562
vt 0.238275 0.784562
vt 0.238275 0.784562
vt 0.238275 0.784562
vt 0.238275 0.784562
vt 0.238275 0.784562
vt 0.238275 0.784562
vt 0.238275 0.784562
vt 0.238275 0.784562
vt 0.238275 0.784562
vt 0.238275 0.784562
vt 0.238275 0.784562
vt 0.238275 0.784562
vt 0.238275 0.784562
vt 0.238275 0.784562
vt 0.238275 0.784562
vt 0.238275 0.784562
vt 0.238275 0.784562
vt 0.238275 0.784562
vt 0.238275 0.784562
vt 0.238275 0.784562
vt 0.238275 0.784562
vt 0.238275 0.784562
vt 0.238275 0.784562
vt 0.238275 0.784562
vt 0.238275 0.784562
vt 0.238275 0.784562
vt 0.238275 0.784562
vt 0.238275 0.784562
vt 0.238275 0.784562
vt 0.238275 0.784562
vt 0.238275 0.784562
vt 0.238275 0.784562
vt 0.238275 0.784562
vt 0.238275 0.784562
vt 0.238275 0.784562
vt 0.238275 0.784562
vt 0.238275 0.784562
vt 0.238275 0.784562
vt 0.238275 0.784562
vt 0.238275 0.784562
vt 0.238275 0.784562
vn 0.0000 0.0000 -1.0000
vn 0.0000 1.0000 0.0000
vn -0.9995 0.0000 0.0327
vn -1.0000 0.0000 0.0000
vn 1.0000 0.0000 0.0000
vn 0.9995 0.0000 0.0327
vn 0.0000 0.0000 1.0000
vn -0.1305 0.0000 0.9914
vn -0.2588 0.0000 0.9659
vn -0.3827 0.0000 0.9239
vn -0.5000 0.0000 0.8660
vn -0.6088 0.0000 0.7933
vn -0.7071 0.0000 0.7071
vn -0.7933 0.0000 0.6088
vn -0.8660 0.0000 0.5000
vn -0.9239 0.0000 0.3827
vn -0.9659 0.0000 0.2588
vn -0.9914 0.0000 0.1305
vn 0.1305 0.0000 0.9914
vn 0.2588 0.0000 0.9659
vn 0.3827 0.0000 0.9239
vn 0.5000 0.0000 0.8660
vn 0.6088 0.0000 0.7933
vn 0.7071 0.0000 0.7071
vn 0.7933 0.0000 0.6088
vn 0.8660 0.0000 0.5000
vn 0.9239 0.0000 0.3827
vn 0.9659 0.0000 0.2588
vn 0.9914 0.0000 0.1305
vn 0.0000 -1.0000 0.0000
usemtl fant_color_palette
s 1
f 57/1/1 55/2/1 61/3/1 59/4/1
f 62/5/2 56/6/2 86/7/2 84/8/2 82/9/2 80/10/2 78/11/2 76/12/2 74/13/2 72/14/2 70/15/2 68/16/2 66/17/2 28/18/2 88/19/2 87/20/2 91/21/2 93/22/2 95/23/2 97/24/2 99/25/2 101/26/2 103/27/2 105/28/2 107/29/2 109/30/2 111/31/2
f 85/32/3 17/33/3 2/34/4 58/35/4
f 60/36/5 4/37/5 43/38/6 112/39/6
f 89/40/7 42/41/7 65/42/8 64/43/8
f 64/43/8 65/42/8 27/44/9 63/45/9
f 63/45/9 27/44/9 26/46/10 67/47/10
f 67/47/10 26/46/10 25/48/11 69/49/11
f 69/49/11 25/48/11 24/50/12 71/51/12
f 71/51/12 24/50/12 23/52/13 73/53/13
f 73/53/13 23/52/13 22/54/14 75/55/14
f 75/55/14 22/54/14 21/56/15 77/57/15
f 77/57/15 21/56/15 20/58/16 79/59/16
f 79/59/16 20/58/16 19/60/17 81/61/17
f 81/61/17 19/60/17 18/62/18 83/63/18
f 83/63/18 18/62/18 17/33/3 85/32/3
f 42/41/7 89/40/7 90/64/19 44/65/19
f 44/65/19 90/64/19 92/66/20 45/67/20
f 45/67/20 92/66/20 94/68/21 46/69/21
f 46/69/21 94/68/21 96/70/22 47/71/22
f 47/71/22 96/70/22 98/72/23 48/73/23
f 48/73/23 98/72/23 100/74/24 49/75/24
f 49/75/24 100/74/24 102/76/25 50/77/25
f 50/77/25 102/76/25 104/78/26 51/79/26
f 51/79/26 104/78/26 106/80/27 52/81/27
f 52/81/27 106/80/27 108/82/28 53/83/28
f 53/83/28 108/82/28 110/84/29 54/85/29
f 54/85/29 110/84/29 112/39/6 43/38/6
f 1/86/30 3/87/30 29/88/30 31/89/30 32/90/30 33/91/30 34/92/30 35/93/30 36/94/30 37/95/30 38/96/30 39/97/30 40/98/30 41/99/30 30/100/30 6/101/30 7/102/30 8/103/30 9/104/30 10/105/30 11/106/30 12/107/30 13/108/30 14/109/30 15/110/30 16/111/30 5/112/30
