# Blender v2.92.0 OBJ File: ''
# www.blender.org
mtllib char_cow_tumble_col.mtl
o char_cow_tumble_col
v -0.143453 -0.408547 -0.011918
v 0.143453 -0.408547 -0.011918
v 0.084047 -0.408547 0.227245
v -0.084047 -0.408547 0.227245
v -0.135326 -0.114745 0.251081
v 0.135326 -0.114745 0.251081
v 0.096548 0.339980 0.218029
v -0.096548 0.339980 0.218029
v 0.144393 0.376168 -0.008182
v -0.144393 0.376168 -0.008182
v -0.083957 0.304084 -0.154680
v 0.083957 0.304084 -0.154680
v 0.135326 -0.114744 -0.250348
v -0.135326 -0.114744 -0.250348
v 0.230975 -0.114744 -0.019373
v -0.230975 -0.114744 -0.019373
v -0.064795 -0.347797 -0.185843
v 0.064795 -0.347797 -0.185843
vt 0.375000 0.250000
vt 0.625000 0.250000
vt 0.625000 0.500000
vt 0.375000 0.500000
vt 0.375000 0.750000
vt 0.625000 0.750000
vt 0.625000 1.000000
vt 0.375000 1.000000
vt 0.625000 0.125000
vt 0.625000 0.250000
vt 0.625000 0.125000
vt 0.375000 0.250000
vt 0.375000 0.125000
vt 0.375000 0.125000
vt 0.375000 0.000000
vt 0.625000 0.000000
vt 0.625000 0.000000
vt 0.375000 0.000000
vt 0.625000 0.625000
vt 0.375000 0.625000
vt 0.875000 0.125000
vt 0.875000 0.250000
vt 0.125000 0.125000
vt 0.125000 0.250000
vt 0.125000 0.000000
vt 0.875000 0.000000
vn 0.0000 0.0725 0.9974
vn 0.0000 0.2227 -0.9749
vn 0.9315 -0.2279 0.2834
vn 0.0000 -0.0809 0.9967
vn -0.9315 -0.2279 0.2834
vn 0.0000 -0.2668 -0.9638
vn 0.8544 -0.3130 -0.4148
vn -0.8544 -0.3130 -0.4148
vn -0.0000 -0.9918 -0.1279
vn 0.0000 -1.0000 0.0000
vn 0.0000 0.9874 0.1580
vn 0.0000 0.9975 -0.0704
vn 0.9862 0.1648 -0.0183
vn 0.9866 0.1613 0.0228
vn 0.9496 0.1325 0.2840
vn -0.9866 0.1613 0.0228
vn -0.9862 0.1648 -0.0183
vn -0.9496 0.1325 0.2840
vn 0.0000 0.8973 -0.4415
vn -0.8956 0.1834 -0.4053
vn 0.0000 -0.9441 -0.3298
vn 0.8956 0.1834 -0.4053
usemtl initialShadingGroup
s off
f 5/1/1 6/2/1 7/3/1 8/4/1
f 11/5/2 12/6/2 13/7/2 14/8/2
f 15/9/3 6/2/3 3/10/3 2/11/3
f 6/2/4 5/1/4 4/12/4 3/10/4
f 5/1/5 16/13/5 1/14/5 4/12/5
f 14/15/6 13/16/6 18/17/6 17/18/6
f 13/16/7 15/9/7 2/11/7 18/17/7
f 16/13/8 14/15/8 17/18/8 1/14/8
s 1
f 1/14/9 2/11/9 3/10/10 4/12/10
f 8/4/11 7/3/11 9/19/12 10/20/12
f 15/9/13 9/21/14 7/22/15 6/2/15
f 10/23/16 16/13/17 5/1/18 8/24/18
f 10/20/12 9/19/12 12/6/19 11/5/19
f 11/25/20 14/15/20 16/13/17 10/23/16
f 17/18/21 18/17/21 2/11/9 1/14/9
f 13/16/22 12/26/22 9/21/14 15/9/13
